<svg width="300" height="157" viewBox="0 0 300 157" fill="none" xmlns="http://www.w3.org/2000/svg">
<path fill-rule="evenodd" clip-rule="evenodd" d="M118.372 10.2023C118.59 20.4763 131.524 36.9951 140.329 33.8726C144.133 32.4625 144.133 30.9516 140.003 19.9726C130.111 -6.11506 118.155 1.94292 118.372 10.2023ZM190.111 33.4697C187.068 41.427 197.611 42.8371 204.894 35.4842C212.285 27.9299 220.22 16.6487 224.459 8.99364C229.133 1.64074 220.003 -2.08607 212.394 3.95741C203.372 11.0081 192.176 27.9299 190.111 33.4697ZM40.3287 27.3255C33.5895 29.8436 56.1982 55.8306 65.3287 56.0321C75.9808 56.2335 76.8504 54.0176 69.4591 44.8516C57.8287 30.3473 48.0461 24.4045 40.3287 27.3255ZM142.503 64.6944C138.481 68.4212 133.698 73.5581 131.85 75.9755C115.981 97.9335 115.763 98.135 108.481 92.998C91.633 81.3139 63.9156 73.3567 69.3504 93.7031C72.72 105.991 82.72 128.453 85.3287 135.907C92.0678 155.548 95.6548 158.771 107.611 156.152C137.285 149.505 179.676 149.303 210.003 155.649C217.503 157.26 217.937 156.455 218.698 142.454C220.22 114.15 237.829 86.5516 237.829 77.6878C237.829 67.7161 217.503 75.1697 189.894 95.2139L187.068 97.2284L183.046 94.7103C174.785 89.5734 170.655 93.6023 175.329 102.164C179.133 109.114 182.285 111.431 190.655 107.704C195.437 105.589 202.068 101.56 211.416 95.4154C215.111 92.998 218.155 91.2857 218.155 91.5878C218.155 92.998 211.524 119.388 211.524 119.489L195.003 118.179C181.85 117.676 180.329 124.122 193.916 126.036C195.329 126.237 209.242 127.849 209.242 127.849C209.242 127.849 208.698 133.489 207.176 136.712C205.546 139.936 202.829 140.741 198.372 139.331C163.481 128.655 106.633 141.648 106.524 141.648C104.459 141.95 85.5461 95.7176 87.0678 94.3074C87.2852 94.106 89.5678 95.4154 92.1765 97.2284C121.633 117.071 124.677 116.467 144.133 87.5589L153.263 73.961L156.85 78.8965C167.285 93.3002 182.068 86.9545 173.807 76.3784C170.981 72.8531 166.307 67.6154 158.807 59.4567C155.437 55.7299 150.437 57.3415 142.503 64.6944ZM283.916 63.1835C280.003 65.2987 259.568 83.4292 257.176 86.8538C252.068 94.4081 262.72 96.1205 272.394 89.2712C283.698 81.3139 299.677 67.6154 299.677 65.8023C299.785 62.1763 289.242 60.3632 283.916 63.1835ZM14.6765 111.431C30.5461 115.057 39.6765 115.963 43.2635 114.15C49.133 111.229 46.4156 109.114 32.5026 105.891C31.1982 105.589 18.3721 102.265 9.56779 102.265C3.26345 102.265 -10.7583 105.488 14.6765 111.431Z" fill="#FFEA00"/>
</svg>
