<svg width="93" height="101" viewBox="0 0 93 101" fill="none" xmlns="http://www.w3.org/2000/svg">
<path d="M39.484 5.54945C35.9603 9.32307 33.758 12.7637 32.8771 16.0934L31.5557 21.0879L28.142 17.8692C23.5172 13.4297 20.7642 12.2088 15.5888 12.2088C11.6246 12.2088 10.7436 12.6527 8.87166 15.7604C4.24677 23.5297 6.66933 32.6308 15.3685 39.956L21.0946 44.8396L16.9102 46.9484C4.02654 53.4967 -4.45243 69.9231 2.48491 74.8066C5.89852 77.2484 10.3032 77.0264 19.3327 73.9187C23.6273 72.3648 27.151 71.2549 27.2611 71.3659C27.3712 71.4769 26.9308 74.1407 26.3802 77.1374C23.8475 90.0121 28.2522 101 35.8502 101C41.0257 101 45.7607 96.6714 47.963 89.9011C48.9541 86.7934 49.9451 84.3516 50.0552 84.3516C50.2755 84.3516 51.707 86.2385 53.2486 88.6802C55.0105 91.233 58.0937 93.8967 61.177 95.4505C67.784 98.6692 71.6381 97.3374 74.9415 90.567C79.126 81.7989 77.254 70.811 70.4268 63.7077L67.1233 60.267L72.0785 59.7121C74.8314 59.3791 79.4563 57.9363 82.3194 56.4934C95.5333 49.8341 95.9738 35.2945 83.0902 32.0758C78.5754 30.8549 78.3552 30.633 79.7867 28.9681C82.6497 25.8604 84.9621 18.9791 84.1913 16.0934C83.2003 12.3198 78.6855 8.87912 74.5011 8.87912C70.8672 8.87912 62.3883 12.4308 59.4151 15.0945C57.7634 16.6484 57.5431 16.3154 56.8824 11.9868C55.7813 4.43956 52.5879 0 48.2934 0C45.5404 0 43.6685 1.10989 39.484 5.54945ZM51.0463 9.98901C51.9272 13.4297 50.9362 19.3121 46.8618 35.0725C46.6416 35.7385 44.9899 36.5154 43.1179 36.8484C39.2638 37.4033 38.6031 35.9604 38.6031 27.0813C38.6031 16.4264 43.7786 4.88351 48.2934 5.77143C49.2844 5.99341 50.4957 7.88022 51.0463 9.98901ZM77.3641 15.9824C80.117 20.089 73.3999 32.4088 66.3525 36.1824C62.168 38.5132 58.8645 42.6198 58.314 46.5044C57.5431 51.4989 60.8466 50.278 67.4536 43.1747C73.51 36.6264 74.391 36.0714 78.7956 36.0714C87.2746 36.0714 90.3578 41.3989 85.9532 48.5022C81.1081 56.6044 67.5637 61.2659 61.3972 57.1593C57.7634 54.8286 54.1295 55.7165 56.3319 58.3802C57.1027 59.3791 59.8556 61.5989 62.4984 63.3747C65.1412 65.2615 67.8941 68.1473 68.775 69.8121C71.5279 75.0286 72.0785 83.3527 70.2065 88.0143C68.6649 91.5659 67.8941 92.1209 64.9209 92.1209C58.2038 92.1209 50.7159 80.356 50.7159 69.7011C50.7159 67.2593 50.2755 64.3736 49.6148 63.2637C48.8439 61.8209 49.1743 59.8231 50.826 55.9385C52.698 51.9429 53.0284 49.3901 52.4778 45.1725C52.0373 40.622 52.3677 38.6242 54.57 34.0736C59.1949 24.9725 66.1322 15.7604 69.3256 14.6506C72.519 13.5407 76.1528 14.2066 77.3641 15.9824ZM21.8654 17.2033C23.1868 18.2022 25.4992 21.1989 27.151 23.8626C28.6926 26.6374 30.3444 28.8571 30.895 28.8571C31.3354 28.8571 32.3265 31.1879 32.9872 34.0736C34.4187 39.5121 34.4187 39.4011 29.5736 42.2868C26.8206 43.8407 24.6183 42.3978 17.9012 34.9615C11.4043 27.8582 9.75259 22.6418 12.6156 18.3132C14.7078 15.0945 18.2316 14.7615 21.8654 17.2033ZM44.6595 48.8352C45.8708 55.8275 43.5583 57.3813 38.1626 53.1637C36.2907 51.6099 35.2996 49.8341 35.2996 47.6143C35.2996 44.6176 35.63 44.3956 39.5942 44.3956C43.7786 44.3956 43.8887 44.5066 44.6595 48.8352ZM31.7759 53.4967L34.1985 58.0473L30.014 62.1538C27.5915 64.3736 23.8475 67.1483 21.4249 68.2582C16.1393 70.7 7.21991 71.8099 6.22887 70.0341C5.01759 68.0363 7.55026 61.7099 10.8538 58.4912C14.3775 55.1615 25.1689 48.8352 27.5915 48.8352C28.4724 48.8352 30.3444 50.944 31.7759 53.4967ZM43.8887 61.9319C45.7607 63.1527 45.9809 79.9121 44.2191 86.2385C42.5673 92.2319 38.493 97.2264 35.9603 96.2275C31.7759 94.5626 30.7848 83.5747 33.758 73.1418C36.8412 62.4868 39.7043 59.3791 43.8887 61.9319Z" fill="#E25D5D"/>
<path d="M11.9111 13.7043C11.2303 14.0623 10.6632 14.7246 9.72945 16.2744C7.55556 19.9277 7.04499 23.8668 8.08951 27.766C9.13923 31.6847 11.779 35.6261 16.0127 39.1911L16.0174 39.1952L21.7435 44.0787L22.8886 45.0553L21.5446 45.7326L17.3633 47.8398C17.3628 47.84 17.3623 47.8403 17.3619 47.8405C11.1212 51.0129 5.92688 56.5978 3.1529 61.9612C1.76528 64.6441 1.01916 67.2026 1.00036 69.3232C0.98176 71.4218 1.66613 73.0073 3.06053 73.9889L3.06055 73.9889L3.06669 73.9932C6.02329 76.1081 9.95091 76.0893 18.9998 72.9757C21.1536 72.1965 23.1174 71.5274 24.5615 71.0655C25.2826 70.8349 25.8832 70.653 26.3164 70.5348C26.5299 70.4765 26.7206 70.4287 26.8713 70.399C26.9423 70.3849 27.0345 70.3688 27.128 70.3619C27.1716 70.3587 27.2535 70.3544 27.3507 70.3651C27.3517 70.3652 27.3531 70.3654 27.3548 70.3656C27.4046 70.3707 27.7137 70.4023 27.971 70.6616C28.1551 70.8472 28.2151 71.0518 28.2319 71.1108C28.2562 71.1967 28.2658 71.2708 28.2702 71.3146C28.2794 71.4044 28.2788 71.4902 28.277 71.5518C28.2733 71.6818 28.2594 71.8383 28.2413 72.0027C28.2044 72.3379 28.1396 72.7928 28.0564 73.3243C27.8892 74.3914 27.6396 75.8165 27.3637 77.3181L27.3638 77.3181L27.3614 77.3304C26.1235 83.6229 26.597 89.3867 28.2452 93.5268C29.8994 97.6818 32.6243 100 35.8502 100C40.4202 100 44.8804 96.1422 47.0112 89.5944C47.5122 88.0235 48.0139 86.6185 48.4065 85.601C48.6023 85.0935 48.7744 84.6735 48.9081 84.3741C48.9735 84.2275 49.0375 84.0922 49.0957 83.9852C49.1224 83.936 49.1636 83.8634 49.2155 83.7919C49.2393 83.7593 49.2902 83.6917 49.366 83.6222C49.3668 83.6215 49.3677 83.6205 49.3689 83.6195C49.4071 83.5839 49.6562 83.3516 50.0552 83.3516C50.364 83.3516 50.5858 83.4911 50.6401 83.5252L50.6422 83.5265C50.7316 83.5826 50.8057 83.6446 50.8578 83.691C50.9651 83.7866 51.0758 83.9044 51.181 84.0239C51.3962 84.2684 51.6624 84.6051 51.9587 85.0033C52.5517 85.8004 53.305 86.8974 54.083 88.1287C55.7442 90.5278 58.6856 93.0738 61.6211 94.5545C64.837 96.1202 67.1434 96.4544 68.9654 95.8116C70.793 95.1669 72.4284 93.4359 74.0408 90.1327C78.0387 81.7512 76.2514 71.211 69.7058 64.4007L69.7054 64.4003L66.4019 60.9596L65.019 59.5192C63.4729 59.2872 62.052 58.7949 60.8506 57.9967C59.1637 56.9168 57.6338 56.6936 56.9116 56.8687C56.7681 56.9035 56.6969 56.9405 56.6643 56.9642C56.6724 57.039 56.726 57.2876 57.1026 57.743L57.1133 57.756L57.1236 57.7693C57.4284 58.1644 58.2221 58.9028 59.342 59.8086C60.4337 60.6916 61.7589 61.673 63.0561 62.5447L63.0679 62.5526L63.0794 62.5609C64.4575 63.5447 65.8518 64.7792 67.0157 65.9809C68.1649 67.1674 69.1517 68.3859 69.6589 69.3444L69.6594 69.3454C71.1164 72.1062 71.9673 75.6337 72.2223 79.0468C72.4767 82.4509 72.1473 85.8648 71.1345 88.3869L71.1294 88.3998L71.1238 88.4125C70.363 90.1652 69.6994 91.4308 68.7105 92.1919C67.6672 92.9949 66.4261 93.1209 64.9209 93.1209C62.9488 93.1209 61.0115 92.2607 59.2571 90.9081C57.4969 89.5511 55.8572 87.6517 54.4552 85.4424C51.6557 81.0309 49.7159 75.2426 49.7159 69.7011C49.7159 68.5344 49.6102 67.2571 49.4265 66.1461C49.236 64.9941 48.9828 64.1571 48.7555 63.7752L48.7436 63.7554L48.7327 63.7349C48.2132 62.7625 48.1089 61.6626 48.3253 60.3536C48.538 59.0677 49.0718 57.5085 49.9058 55.5472L49.9128 55.5306L49.9205 55.5142C50.831 53.5707 51.3424 52.0297 51.5713 50.4915C51.8004 48.9521 51.7549 47.3603 51.4862 45.302L51.484 45.2855L51.4824 45.2689C51.259 42.9609 51.2214 41.2148 51.5495 39.4412C51.8768 37.6721 52.5559 35.9398 53.6699 33.638L53.6741 33.6292L53.6785 33.6206C56.0175 29.0178 58.9395 24.3889 61.6875 20.7615C63.061 18.9485 64.4033 17.3694 65.6191 16.1637C66.8022 14.9905 67.9705 14.0628 68.9973 13.706C70.7551 13.095 72.6329 12.9707 74.2568 13.2487C75.8465 13.5208 77.3682 14.2137 78.1903 15.4189L78.1947 15.4256C79.1063 16.7854 79.1468 18.656 78.7771 20.5337C78.3992 22.4529 77.5523 24.5932 76.4114 26.6859C74.144 30.8451 70.5864 35.0465 66.8322 37.0599C62.8352 39.2887 59.7979 43.1607 59.3041 46.6447L59.3041 46.6447L59.3023 46.6569C59.2127 47.2374 59.1893 47.686 59.212 48.0184C59.2331 48.3268 59.2901 48.4776 59.3213 48.536C59.3797 48.5388 59.5207 48.5296 59.7737 48.4371C60.3815 48.2148 61.2805 47.6462 62.4849 46.6298C63.6698 45.6298 65.0847 44.2533 66.7202 42.495C69.7159 39.256 71.5477 37.3635 73.2131 36.32C74.988 35.208 76.547 35.0714 78.7956 35.0714C83.1965 35.0714 86.5333 36.4553 88.072 39.1235C89.6159 41.8007 89.0968 45.3268 86.8072 49.0225C84.4282 52.9959 80.1383 56.1227 75.6272 57.9306C77.8038 57.3205 80.1654 56.4591 81.8693 55.6004C88.2337 52.393 91.3545 47.3808 91.4918 42.9633C91.6267 38.6245 88.8945 34.5566 82.8478 33.046L82.8384 33.0437L82.8291 33.0411C81.7041 32.7369 80.812 32.4859 80.1418 32.2546C79.5136 32.0378 78.9155 31.7874 78.5218 31.4153C78.2985 31.2043 78.1017 30.9192 78.0306 30.5508C77.9609 30.1903 78.0341 29.8655 78.1362 29.6115C78.3185 29.1578 78.6907 28.7089 79.0284 28.3162L79.0396 28.3032L79.0512 28.2906C80.3534 26.8771 81.59 24.5225 82.4049 22.1256C82.8087 20.9379 83.0977 19.7724 83.2405 18.7475C83.3859 17.7033 83.3678 16.8855 83.2252 16.3515L83.2241 16.3474C82.8002 14.7332 81.5897 13.1058 79.9437 11.8711C78.3012 10.6391 76.3317 9.87912 74.5011 9.87912C72.8972 9.87912 70.0272 10.6957 67.0932 11.9117C64.1816 13.1185 61.4524 14.6163 60.0919 15.8308C59.6986 16.2005 59.2636 16.5861 58.8293 16.7835C58.5894 16.8925 58.2562 16.9892 57.8778 16.9182C57.4802 16.8437 57.1911 16.6147 56.9963 16.3713C56.6633 15.9551 56.4857 15.3405 56.3493 14.7378C56.201 14.0827 56.0586 13.2169 55.8939 12.1377L55.8929 12.1312C55.3558 8.45006 54.3202 5.62449 52.9728 3.74604C51.6406 1.88876 50.0451 1 48.2934 1C47.0908 1 46.1202 1.23174 44.9546 1.95847C43.7373 2.71741 42.2982 4.02174 40.2134 6.23362C36.7434 9.94997 34.6646 13.2469 33.8438 16.3492L32.5224 21.3437L32.0925 22.9685L30.8696 21.8155L27.456 18.5968L27.4495 18.5906C25.1667 16.3993 23.42 15.0767 21.6618 14.2862C19.9218 13.504 18.0935 13.2088 15.5888 13.2088C13.5881 13.2088 12.6149 13.3342 11.9111 13.7043ZM56.6403 56.9892C56.6414 56.9897 56.6463 56.9853 56.6516 56.9744C56.6418 56.9832 56.6392 56.9887 56.6403 56.9892ZM52.0138 9.73639L52.015 9.74098C52.5093 11.6715 52.4508 14.1737 51.7986 18.0757C51.1437 21.9939 49.8673 27.4421 47.83 35.3228L47.8217 35.355L47.8113 35.3865C47.6663 35.8249 47.3441 36.1477 47.0711 36.3656C46.7769 36.6004 46.4187 36.8086 46.0369 36.9892C45.2709 37.3517 44.3031 37.6532 43.293 37.8329L43.2767 37.8358L43.2604 37.8381C42.265 37.9815 41.3098 38.0261 40.4779 37.7562C39.5699 37.4616 38.9294 36.8359 38.5073 35.9218C38.1098 35.0607 37.8953 33.9252 37.7705 32.5198C37.6442 31.0982 37.6031 29.3064 37.6031 27.0813C37.6031 21.6106 38.9277 15.9207 40.8441 11.6855C41.8005 9.57204 42.9304 7.76214 44.1663 6.52221C45.3842 5.30037 46.8763 4.47357 48.4863 4.79023L48.4992 4.79275L48.5119 4.79561C48.9979 4.90446 49.4129 5.18898 49.7419 5.49223C50.081 5.80478 50.3942 6.19772 50.6737 6.62803C51.2326 7.48875 51.714 8.58787 52.0138 9.73639ZM22.4231 16.3733L22.4462 16.3888L22.4684 16.4056C23.2397 16.9886 24.2153 18.0767 25.1702 19.2903C26.1432 20.5268 27.1555 21.9724 28.0009 23.3356L28.0135 23.356L28.0251 23.377C28.78 24.7355 29.5543 25.9443 30.1954 26.8015C30.5184 27.2333 30.7901 27.5523 30.9947 27.753C31.057 27.8141 31.1047 27.856 31.1385 27.8833C31.4713 27.956 31.6944 28.1604 31.7854 28.2499C31.9349 28.3969 32.0601 28.5725 32.1622 28.7354C32.3707 29.0683 32.5815 29.509 32.7842 30.0051C33.1921 31.0035 33.6186 32.3546 33.9583 33.8346L33.9882 33.9482C34.3245 35.2252 34.5959 36.2561 34.7269 37.0903C34.8639 37.9622 34.8751 38.7675 34.5556 39.5258C34.2375 40.281 33.6543 40.8393 32.9413 41.359C32.2884 41.8349 31.4184 42.3526 30.3515 42.9875C30.2641 43.0395 30.1753 43.0923 30.0853 43.146L30.0753 43.1519L30.0651 43.1577C29.2658 43.6088 28.425 43.8867 27.4858 43.8424C26.5578 43.7986 25.6465 43.4454 24.6897 42.8408C22.8198 41.6591 20.5009 39.3313 17.1612 35.6341C13.8765 32.0424 11.7269 28.8356 10.7953 25.8993C9.84537 22.9054 10.1685 20.202 11.7796 17.7645C12.9671 15.9396 14.621 14.8598 16.5502 14.6419C18.4501 14.4273 20.4743 15.0638 22.4231 16.3733ZM45.644 48.6598L45.6448 48.6645C45.9553 50.4568 46.0545 51.9745 45.9067 53.1766C45.7616 54.3557 45.3513 55.429 44.444 56.0348C43.5167 56.654 42.3851 56.5795 41.2911 56.1928C40.1876 55.8027 38.9328 55.035 37.5468 53.9516L37.5352 53.9426L37.5239 53.9332C35.4769 52.2341 34.2996 50.1951 34.2996 47.6143C34.2996 46.8719 34.3175 46.1986 34.4345 45.6415C34.5588 45.05 34.8159 44.4862 35.3634 44.0789C35.8674 43.7039 36.4952 43.5574 37.1366 43.4837C37.7899 43.4086 38.6086 43.3956 39.5942 43.3956C40.6227 43.3956 41.4827 43.4009 42.1693 43.4886C42.8678 43.5779 43.528 43.767 44.0673 44.2412C44.5992 44.7089 44.8852 45.3422 45.0898 46.0303C45.2933 46.7147 45.4543 47.5942 45.644 48.6598ZM32.6481 53.0076L32.6535 53.0171L32.6586 53.0268L35.0812 57.5773L35.4325 58.2373L34.8989 58.761L30.7145 62.8676L30.7022 62.8796L30.6896 62.8911C28.2335 65.1417 24.4018 67.9939 21.8432 69.1666C19.0839 70.441 15.4269 71.3507 12.3353 71.7207C10.789 71.9057 9.33585 71.9618 8.17697 71.844C7.59988 71.7854 7.05267 71.6796 6.58924 71.5006C6.14829 71.3303 5.65449 71.0436 5.3652 70.5383C4.89026 69.7432 4.85794 68.6951 4.98409 67.7129C5.11663 66.6809 5.45158 65.518 5.91997 64.3486C6.85348 62.0181 8.38164 59.5037 10.1559 57.775L10.1614 57.7696L10.1669 57.7644C12.0169 56.0163 15.6795 53.555 19.1335 51.5497C20.8717 50.5406 22.5874 49.6292 24.033 48.9666C24.7549 48.6357 25.4236 48.3603 26.0025 48.1656C26.5557 47.9797 27.1179 47.8352 27.5915 47.8352C28.1514 47.8352 28.6566 48.1394 29.0096 48.4001C29.4056 48.6925 29.8176 49.0893 30.2225 49.5419C31.0356 50.4509 31.9025 51.6781 32.6481 53.0076ZM44.4095 61.0782L44.4224 61.086L44.435 61.0943C44.7525 61.3013 44.9604 61.6042 45.0989 61.859C45.2454 62.1287 45.3659 62.4418 45.468 62.7718C45.6724 63.4328 45.8367 64.2721 45.9683 65.2173C46.2324 67.115 46.3818 69.567 46.4165 72.1572C46.4855 77.3068 46.1037 83.1972 45.1828 86.5054C44.3237 89.6217 42.8324 92.4978 41.1921 94.4906C40.3743 95.4842 39.4827 96.303 38.57 96.8065C37.6603 97.3083 36.6067 97.5574 35.5934 97.1577L35.5906 97.1566C34.2006 96.6036 33.2056 95.3347 32.5191 93.7915C31.8257 92.2327 31.3852 90.2617 31.1794 88.066C30.7674 83.6695 31.2797 78.1894 32.7963 72.8677L32.7974 72.8638C34.3373 67.5421 35.8733 63.8915 37.6699 61.9119C38.5953 60.8922 39.6515 60.2466 40.8655 60.114C42.0653 59.983 43.2517 60.3718 44.4095 61.0782Z" stroke="#FF169E" stroke-opacity="0.75" stroke-width="2"/>
</svg>
