<svg width="281" height="269" viewBox="0 0 281 269" fill="none" xmlns="http://www.w3.org/2000/svg">
<path d="M267.436 171.499L267.437 171.5C269.501 174.437 270.864 176.508 271.701 178.017C272.547 179.543 272.809 180.419 272.777 180.997C272.748 181.523 272.47 181.876 271.891 182.345C271.736 182.471 271.557 182.606 271.36 182.754C270.847 183.141 270.216 183.616 269.584 184.248L269.577 184.255L269.57 184.263C268.367 185.578 265.386 188.098 261.521 191.16C257.668 194.212 252.968 197.777 248.352 201.171C243.736 204.565 239.208 207.786 235.699 210.15C233.944 211.333 232.449 212.297 231.329 212.961C230.767 213.294 230.308 213.546 229.961 213.712C229.787 213.795 229.65 213.852 229.549 213.886C229.479 213.91 229.444 213.917 229.435 213.918C227.632 213.802 226.135 213.206 224.934 212.197C223.723 211.177 222.782 209.708 222.155 207.807C220.898 203.993 220.936 198.534 222.487 191.832C222.815 190.565 223.059 189.35 223.207 188.42C223.281 187.955 223.332 187.556 223.356 187.253C223.368 187.103 223.374 186.968 223.372 186.858C223.371 186.803 223.368 186.746 223.361 186.691C223.355 186.649 223.34 186.558 223.291 186.465C223.233 186.356 223.149 186.292 223.115 186.267C223.098 186.255 223.081 186.244 223.065 186.234C223.041 186.22 223.019 186.208 223.001 186.199C222.941 186.169 222.875 186.144 222.813 186.123C222.688 186.08 222.521 186.032 222.321 185.981C221.918 185.877 221.338 185.746 220.59 185.589C219.091 185.274 216.892 184.85 214.041 184.323C208.337 183.27 200.006 181.807 189.402 179.992C168.194 176.362 137.885 171.326 101.299 165.363C68.5791 159.998 62.1418 158.874 57.2268 157.313L57.2206 157.311C54.4222 156.458 52.4868 155.193 51.5887 153.961C51.1448 153.353 50.9698 152.776 51.0265 152.263C51.0828 151.753 51.3745 151.238 52.0062 150.766L52.0083 150.765C53.3217 149.773 53.9883 149.01 55.3826 147.413C55.9614 146.75 56.6656 145.943 57.5935 144.917C60.7859 141.387 66.6754 135.192 79.2649 123.182L79.2651 123.182C80.3501 122.146 81.3599 121.233 82.2633 120.417C82.4979 120.205 82.7253 119.999 82.945 119.8C84.0034 118.839 84.8941 118.007 85.5168 117.275C86.125 116.561 86.5594 115.852 86.5458 115.14C86.5309 114.362 85.9991 113.754 85.1522 113.256C84.313 112.763 83.0627 112.313 81.3714 111.851C79.6701 111.386 77.4797 110.898 74.7329 110.343C71.4232 109.675 67.2848 108.905 62.193 107.958C58.8371 107.333 55.067 106.632 50.8471 105.832C33.4219 102.525 23.6662 100.587 18.0259 99.0308C15.2042 98.2521 13.4574 97.5803 12.3069 96.9033C11.1831 96.2419 10.6235 95.5728 10.1881 94.7567C9.88361 94.1859 9.68053 93.719 9.58664 93.3423C9.49255 92.9648 9.52258 92.7363 9.60367 92.5905C9.68071 92.4521 9.85285 92.301 10.2637 92.19C10.6799 92.0775 11.289 92.0215 12.1489 92.0431C15.6116 92.1302 22.4809 93.4431 34.8854 96.0795C52.935 99.951 80.3708 105.535 88.2298 106.997C92.6405 107.827 95.5754 108.815 97.2862 110.022C98.1296 110.618 98.6552 111.253 98.9273 111.935C99.1997 112.619 99.2365 113.396 99.0171 114.302L99.0158 114.307C99.0165 114.305 99.0012 114.354 98.9257 114.476C98.857 114.586 98.7567 114.729 98.6228 114.903C98.3555 115.251 97.9724 115.703 97.4849 116.247C96.5111 117.334 95.1404 118.767 93.4942 120.431C90.2029 123.759 85.8248 127.997 81.3508 132.211C76.8768 136.426 72.3105 140.614 68.6432 143.841C66.8091 145.455 65.2029 146.826 63.9471 147.84C63.3189 148.347 62.7822 148.761 62.3505 149.07C61.908 149.387 61.607 149.571 61.4407 149.642C61.3141 149.697 61.1715 149.772 61.063 149.881C60.9437 150.002 60.828 150.212 60.9125 150.474C60.9823 150.69 61.1563 150.823 61.266 150.893C61.3896 150.972 61.5371 151.037 61.6895 151.093C62.2874 151.312 63.3561 151.531 64.8379 151.766L64.8411 151.766C65.475 151.863 72.4571 153.02 83.0407 154.774C112.675 159.686 170.546 169.277 196.352 173.373L196.352 173.373C205.826 174.873 213.038 176.039 218.492 177.052C223.954 178.066 227.618 178.921 230.013 179.791C232.427 180.668 233.402 181.507 233.735 182.401C233.906 182.858 233.931 183.384 233.827 184.023C233.722 184.666 233.493 185.394 233.187 186.246C232.625 187.808 231.744 191.653 231.063 195.097C230.721 196.826 230.426 198.468 230.246 199.691C230.156 200.301 230.092 200.815 230.066 201.187C230.054 201.37 230.048 201.535 230.058 201.666C230.062 201.728 230.071 201.809 230.096 201.888C230.108 201.928 230.131 201.99 230.176 202.056C230.218 202.117 230.301 202.21 230.438 202.266C230.513 202.298 230.625 202.334 230.766 202.329C230.901 202.324 231.013 202.284 231.1 202.244C231.262 202.169 231.471 202.03 231.76 201.824C232.051 201.616 232.464 201.311 233.057 200.873C233.676 200.417 234.49 199.815 235.566 199.03C239.796 195.94 248.125 189.955 264.762 178.482L265.113 178.24L264.887 177.867C263.736 175.967 263.053 174.827 262.338 173.704C260.354 170.587 258.125 167.598 244.988 148.855L244.299 147.872L244.054 148.982C243.99 149.273 243.927 149.559 243.865 149.84C243.128 153.187 242.525 155.923 241.956 158.151C241.337 160.57 240.765 162.36 240.117 163.667C239.472 164.969 238.769 165.753 237.913 166.207C237.054 166.663 235.974 166.822 234.489 166.747L234.481 166.747C233.577 166.713 231.465 166.456 228.37 166.015C225.288 165.576 221.265 164.959 216.563 164.214C207.159 162.723 195.049 160.72 182.346 158.603C177.901 157.863 173.384 157.108 168.884 156.356C147.671 152.812 126.86 149.334 115.963 147.713C108.501 146.599 102.968 145.763 99.3326 144.683C97.5132 144.142 96.2356 143.558 95.4368 142.893C94.6694 142.255 94.3374 141.539 94.4024 140.64C94.4705 139.699 94.9773 138.525 96.0126 137.034C97.0422 135.551 98.5618 133.801 100.589 131.714C104.642 127.538 110.671 122.066 118.732 114.761C122.265 111.575 125.44 108.646 127.717 106.484C128.855 105.404 129.772 104.512 130.398 103.875C130.71 103.557 130.955 103.297 131.121 103.106C131.202 103.012 131.273 102.925 131.324 102.85C131.348 102.815 131.38 102.765 131.403 102.71C131.415 102.683 131.433 102.637 131.441 102.579C131.449 102.528 131.459 102.409 131.388 102.276L131.377 102.256L131.364 102.237C131.293 102.128 131.196 102.066 131.164 102.046C131.117 102.015 131.067 101.99 131.023 101.969C130.935 101.927 130.823 101.883 130.699 101.838C130.446 101.746 130.091 101.631 129.643 101.496C128.744 101.224 127.436 100.859 125.743 100.406C122.355 99.4996 117.405 98.2362 111.056 96.657C98.3572 93.4984 80.0483 89.0738 57.4089 83.7093C41.0672 79.8273 32.948 77.8976 28.6718 76.4029C26.537 75.6567 25.4348 75.0426 24.7507 74.3979C24.0721 73.7584 23.7602 73.0519 23.291 71.9627C23.0153 71.3067 22.7893 70.7621 22.6499 70.3052C22.5072 69.8377 22.4813 69.5398 22.5304 69.3507C22.5673 69.209 22.6559 69.084 22.9458 68.9873C23.2679 68.8799 23.7966 68.8261 24.6321 68.8672C26.2945 68.949 28.9484 69.3911 33.049 70.2313C37.1389 71.0693 42.6307 72.2952 49.9503 73.9314L49.9511 73.9315C81.1112 80.8498 104.78 86.571 124.598 91.8428C125.182 92.0001 125.754 92.1537 126.314 92.3041C132.79 94.0442 137.617 95.3412 140.684 96.8075C142.346 97.602 143.405 98.4083 143.946 99.2916C144.469 100.147 144.556 101.158 144.071 102.478C143.58 103.814 142.518 105.422 140.808 107.409C139.103 109.39 136.778 111.72 133.795 114.498C128.626 119.313 121.509 125.446 112.269 133.411C110.841 134.641 109.363 135.915 107.834 137.234L107.063 137.899L108.134 138.073L232.339 158.268L232.82 158.346L232.909 157.905L234.817 148.365L234.817 148.364C235.617 144.34 236.485 141.511 237.564 139.871C238.1 139.057 238.658 138.583 239.235 138.374C239.798 138.171 240.451 138.194 241.257 138.518C242.075 138.847 243.028 139.478 244.14 140.457C245.248 141.434 246.491 142.736 247.892 144.379C250.693 147.667 254.093 152.285 258.267 158.315L258.267 158.316C262.079 163.805 266.195 169.725 267.436 171.499Z" fill="#FFEA00" fill-opacity="0.49" stroke="black"/>
</svg>
