<svg width="265" height="147" viewBox="0 0 265 147" fill="none" xmlns="http://www.w3.org/2000/svg">
<path d="M258.436 103.499L258.437 103.5C260.501 106.437 261.864 108.508 262.701 110.017C263.547 111.543 263.809 112.419 263.777 112.997C263.748 113.523 263.47 113.876 262.891 114.345C262.736 114.471 262.557 114.606 262.36 114.754C261.847 115.141 261.216 115.616 260.584 116.248L260.577 116.255L260.57 116.263C259.367 117.578 256.386 120.098 252.521 123.16C248.668 126.212 243.968 129.777 239.352 133.171C234.736 136.565 230.208 139.786 226.699 142.15C224.944 143.333 223.449 144.297 222.329 144.961C221.767 145.294 221.308 145.546 220.961 145.712C220.787 145.795 220.65 145.852 220.549 145.886C220.479 145.91 220.444 145.917 220.435 145.918C218.632 145.802 217.135 145.206 215.934 144.197C214.723 143.177 213.782 141.708 213.155 139.807C211.898 135.993 211.936 130.534 213.487 123.832C213.815 122.565 214.059 121.35 214.207 120.42C214.281 119.955 214.332 119.556 214.356 119.253C214.368 119.103 214.374 118.968 214.372 118.858C214.371 118.803 214.368 118.746 214.361 118.691C214.355 118.649 214.34 118.558 214.291 118.465C214.233 118.356 214.149 118.292 214.115 118.267C214.098 118.255 214.081 118.244 214.065 118.234C214.041 118.22 214.019 118.208 214.001 118.199C213.941 118.169 213.875 118.144 213.813 118.123C213.688 118.08 213.521 118.032 213.321 117.981C212.918 117.877 212.338 117.746 211.59 117.589C210.091 117.274 207.892 116.85 205.041 116.323C199.337 115.27 191.006 113.807 180.402 111.992C159.194 108.362 128.885 103.326 92.2991 97.3626C59.5791 91.9976 53.1418 90.8737 48.2268 89.3132L48.2206 89.3113C45.4222 88.458 43.4868 87.1929 42.5887 85.9614C42.1448 85.3526 41.9698 84.776 42.0265 84.2625C42.0828 83.7533 42.3745 83.2379 43.0062 82.7663L43.0083 82.7648C44.3217 81.7732 44.9883 81.0097 46.3826 79.4126C46.9614 78.7497 47.6656 77.9432 48.5935 76.9171C51.7859 73.3867 57.6754 67.192 70.2649 55.1822L70.2651 55.182C71.3501 54.1456 72.3599 53.2331 73.2633 52.4167C73.4979 52.2047 73.7253 51.9992 73.945 51.7997C75.0034 50.8385 75.8941 50.0066 76.5168 49.2752C77.125 48.5609 77.5594 47.8524 77.5458 47.1401C77.5309 46.3624 76.9991 45.7543 76.1522 45.2564C75.313 44.7631 74.0627 44.313 72.3714 43.8509C70.6701 43.3861 68.4797 42.8982 65.7329 42.3434C62.4232 41.6748 58.2848 40.905 53.193 39.9578C49.8371 39.3335 46.067 38.6321 41.8471 37.832C24.4219 34.5254 14.6662 32.5874 9.02588 31.0308C6.20419 30.2521 4.45735 29.5803 3.30691 28.9033C2.18313 28.2419 1.62347 27.5728 1.18811 26.7567C0.883612 26.1859 0.68053 25.719 0.586635 25.3423C0.492552 24.9648 0.522575 24.7363 0.603672 24.5905C0.680714 24.4521 0.852849 24.301 1.26366 24.19C1.67993 24.0775 2.28905 24.0215 3.14891 24.0431C6.61164 24.1302 13.4809 25.4431 25.8854 28.0795C43.935 31.951 71.3708 37.5354 79.2298 38.9973C83.6405 39.8275 86.5754 40.8145 88.2862 42.0223C89.1296 42.6177 89.6552 43.2529 89.9273 43.9353C90.1997 44.6186 90.2365 45.3963 90.0171 46.3018L90.0158 46.3074C90.0165 46.3047 90.0012 46.354 89.9257 46.4757C89.857 46.5865 89.7567 46.7287 89.6228 46.9029C89.3555 47.2508 88.9724 47.7026 88.4849 48.2467C87.5111 49.3335 86.1404 50.7665 84.4942 52.431C81.2029 55.7587 76.8248 59.9968 72.3508 64.2115C67.8768 68.426 63.3105 72.6139 59.6432 75.8413C57.8091 77.4554 56.2029 78.8265 54.9471 79.8398C54.3189 80.3467 53.7822 80.761 53.3505 81.0703C52.908 81.3874 52.607 81.5714 52.4407 81.6425C52.3141 81.6966 52.1715 81.7715 52.063 81.8814C51.9437 82.0023 51.828 82.2123 51.9125 82.4737C51.9823 82.6899 52.1563 82.8229 52.266 82.893C52.3896 82.9719 52.5371 83.0368 52.6895 83.0928C53.2874 83.3122 54.3561 83.5308 55.8379 83.7658L55.8411 83.7663C56.475 83.8632 63.4571 85.0203 74.0407 86.7743C103.675 91.6857 161.546 101.277 187.352 105.373L187.352 105.373C196.826 106.873 204.038 108.039 209.492 109.052C214.954 110.066 218.618 110.921 221.013 111.791C223.427 112.668 224.402 113.507 224.735 114.401C224.906 114.858 224.931 115.384 224.827 116.023C224.722 116.666 224.493 117.394 224.187 118.246C223.625 119.808 222.744 123.653 222.063 127.097C221.721 128.826 221.426 130.468 221.246 131.691C221.156 132.301 221.092 132.815 221.066 133.187C221.054 133.37 221.048 133.535 221.058 133.666C221.062 133.728 221.071 133.809 221.096 133.888C221.108 133.928 221.131 133.99 221.176 134.056C221.218 134.117 221.301 134.21 221.438 134.266C221.513 134.298 221.625 134.334 221.766 134.329C221.901 134.324 222.013 134.284 222.1 134.244C222.262 134.169 222.471 134.03 222.76 133.824C223.051 133.616 223.464 133.311 224.057 132.873C224.676 132.417 225.49 131.815 226.566 131.03C230.796 127.94 239.125 121.955 255.762 110.482L256.113 110.24L255.887 109.867C254.736 107.967 254.053 106.827 253.338 105.704C251.354 102.587 249.125 99.5979 235.988 80.8549L235.299 79.8716L235.054 80.9824C234.99 81.2727 234.927 81.5585 234.865 81.8401C234.128 85.1873 233.525 87.9227 232.956 90.1506C232.337 92.5695 231.765 94.3597 231.117 95.6668C230.472 96.9689 229.769 97.7529 228.913 98.2072C228.054 98.6628 226.974 98.8222 225.489 98.7469L225.481 98.7467C224.577 98.7132 222.465 98.4563 219.37 98.0151C216.288 97.5759 212.265 96.9589 207.563 96.2136C198.159 94.723 186.049 92.7204 173.346 90.6034C168.901 89.8627 164.384 89.1079 159.884 88.3561C138.671 84.8118 117.86 81.3345 106.963 79.7127C99.5009 78.5988 93.9677 77.7627 90.3326 76.6826C88.5132 76.1421 87.2356 75.5583 86.4368 74.8934C85.6694 74.2547 85.3374 73.5386 85.4024 72.6398C85.4705 71.6989 85.9773 70.5247 87.0126 69.0339C88.0422 67.5514 89.5618 65.8013 91.5886 63.7135C95.6423 59.5378 101.671 54.0659 109.732 46.7615C113.265 43.5753 116.44 40.6463 118.717 38.4844C119.855 37.404 120.772 36.5123 121.398 35.8749C121.71 35.5572 121.955 35.2971 122.121 35.106C122.202 35.0121 122.273 34.9245 122.324 34.8499C122.348 34.8145 122.38 34.7655 122.403 34.7102C122.415 34.683 122.433 34.637 122.441 34.579C122.449 34.5285 122.459 34.4094 122.388 34.2764L122.377 34.2562L122.364 34.2368C122.293 34.1282 122.196 34.0658 122.164 34.0456C122.117 34.0155 122.067 33.99 122.023 33.9693C121.935 33.9274 121.823 33.8832 121.699 33.8377C121.446 33.7455 121.091 33.6311 120.643 33.4957C119.744 33.2242 118.436 32.8591 116.743 32.4061C113.355 31.4996 108.405 30.2362 102.056 28.657C89.3572 25.4984 71.0483 21.0738 48.4089 15.7093C32.0672 11.8273 23.948 9.89758 19.6718 8.40291C17.537 7.6567 16.4348 7.04263 15.7507 6.39795C15.0721 5.75844 14.7602 5.05187 14.291 3.96274C14.0153 3.30668 13.7893 2.7621 13.6499 2.30525C13.5072 1.83775 13.4813 1.53984 13.5304 1.35074C13.5673 1.20901 13.6559 1.08402 13.9458 0.987335C14.2679 0.879903 14.7966 0.826109 15.6321 0.867217C17.2945 0.949012 19.9484 1.39112 24.049 2.23132C28.1389 3.06934 33.6307 4.29518 40.9503 5.93137L40.9511 5.93154C72.1112 12.8498 95.7799 18.571 115.598 23.8428C116.182 24.0001 116.754 24.1537 117.314 24.3041C123.79 26.0442 128.617 27.3412 131.684 28.8075C133.346 29.602 134.405 30.4083 134.946 31.2916C135.469 32.1472 135.556 33.1582 135.071 34.4782C134.58 35.8138 133.518 37.4223 131.808 39.4089C130.103 41.39 127.778 43.7198 124.795 46.4982C119.626 51.3125 112.509 57.4463 103.269 65.4107C101.841 66.6408 100.363 67.9145 98.8343 69.2338L98.0633 69.8989L99.134 70.073L223.339 90.2679L223.82 90.3462L223.909 89.9053L225.817 80.3649L225.817 80.3644C226.617 76.3399 227.485 73.5109 228.564 71.871C229.1 71.0571 229.658 70.5827 230.235 70.3741C230.798 70.171 231.451 70.1942 232.257 70.5179C233.075 70.8465 234.028 71.4777 235.14 72.4574C236.248 73.4339 237.491 74.7358 238.892 76.3795C241.693 79.6674 245.093 84.2854 249.267 90.315L249.267 90.3157C253.079 95.8051 257.195 101.725 258.436 103.499Z" fill="#FFEA00" fill-opacity="0.49" stroke="black"/>
</svg>
