<svg width="125" height="147" viewBox="0 0 125 147" fill="none" xmlns="http://www.w3.org/2000/svg">
<path d="M36.891 110.507C36.8904 110.504 36.8897 110.502 36.8891 110.5C36.8784 110.461 36.8672 110.423 36.8553 110.385L21.0406 59.5041L39.7269 78.7595C40.7508 79.8146 42.2712 80.2229 43.686 79.8228C45.1009 79.4226 46.1821 78.2785 46.5017 76.8433L57.0535 29.4629L79.1522 72.6819C79.8216 73.9911 81.1553 74.8274 82.6253 74.8599C84.0953 74.8924 85.4646 74.1158 86.1912 72.8375L99.4336 49.5398L96.889 102.718C96.8869 102.762 96.8855 102.806 96.8849 102.85C96.8848 102.853 96.8848 102.857 96.8847 102.86L36.891 110.507ZM100.801 47.133C100.801 47.133 100.801 47.1332 100.8 47.1336L100.801 47.133Z" stroke="#F5E537" stroke-width="8" stroke-linecap="round" stroke-linejoin="round"/>
</svg>
