<svg width="125" height="147" viewBox="0 0 125 147" fill="none" xmlns="http://www.w3.org/2000/svg">
<path d="M30.3484 114.041C30.2419 113.932 30.0783 113.704 29.9747 113.329C29.9642 113.291 29.9531 113.253 29.9415 113.216L10.1722 49.1708C10.0861 48.828 10.0833 48.4828 10.1404 48.1945L34.7002 73.7821C35.7229 74.8476 37.2495 75.2629 38.671 74.8622C40.0926 74.4616 41.1777 73.3102 41.4935 71.8675L54.6224 11.8862L82.3767 66.6569C83.0443 67.9743 84.3835 68.8166 85.8601 68.8479C87.3367 68.8792 88.7103 68.0943 89.4331 66.8063L106.771 35.9094C106.895 36.1656 106.978 36.489 106.985 36.8327L103.913 103.769C103.911 103.812 103.91 103.856 103.909 103.899C103.904 104.291 103.802 104.555 103.726 104.689L30.3484 114.041ZM54.2376 11.3337L54.2385 11.3343C54.2379 11.3339 54.2376 11.3337 54.2376 11.3337Z" stroke="#FFEA00" stroke-width="8" stroke-linecap="round" stroke-linejoin="round"/>
<path d="M36.891 110.507C36.8904 110.504 36.8897 110.502 36.8891 110.5C36.8784 110.461 36.8672 110.423 36.8553 110.385L21.0406 59.5041L39.7269 78.7595C40.7508 79.8146 42.2712 80.2229 43.686 79.8228C45.1009 79.4226 46.1821 78.2785 46.5017 76.8433L57.0535 29.4629L79.1522 72.6819C79.8216 73.9911 81.1553 74.8274 82.6253 74.8599C84.0953 74.8924 85.4646 74.1158 86.1912 72.8375L99.4336 49.5398L96.889 102.718C96.8869 102.762 96.8855 102.806 96.8849 102.85C96.8848 102.853 96.8848 102.857 96.8847 102.86L36.891 110.507ZM100.801 47.133C100.801 47.133 100.801 47.1332 100.8 47.1336L100.801 47.133Z" stroke="#F5E537" stroke-width="8" stroke-linecap="round" stroke-linejoin="round"/>
</svg>
