<svg width="150" height="178" viewBox="0 0 150 178" fill="none" xmlns="http://www.w3.org/2000/svg">
<path d="M43.3484 135.041C43.2419 134.932 43.0783 134.704 42.9747 134.329C42.9642 134.291 42.9531 134.253 42.9415 134.216L23.1722 70.1708C23.0861 69.828 23.0833 69.4828 23.1404 69.1945L47.7002 94.7821C48.7229 95.8476 50.2495 96.2629 51.671 95.8622C53.0926 95.4616 54.1777 94.3102 54.4935 92.8675L67.6224 32.8862L95.3767 87.6569C96.0443 88.9743 97.3835 89.8166 98.8601 89.8479C100.337 89.8792 101.71 89.0943 102.433 87.8063L119.771 56.9094C119.895 57.1656 119.978 57.489 119.985 57.8327L116.913 124.769C116.911 124.812 116.91 124.856 116.909 124.899C116.904 125.291 116.802 125.555 116.726 125.689L43.3484 135.041ZM67.2376 32.3337L67.2385 32.3343C67.2379 32.3339 67.2376 32.3337 67.2376 32.3337Z" stroke="#FFEA00" stroke-width="8" stroke-linecap="round" stroke-linejoin="round"/>
<path d="M49.891 131.507C49.8904 131.504 49.8897 131.502 49.8891 131.5C49.8784 131.461 49.8672 131.423 49.8553 131.385L34.0406 80.5041L52.7269 99.7595C53.7508 100.815 55.2712 101.223 56.686 100.823C58.1009 100.423 59.1821 99.2785 59.5017 97.8433L70.0535 50.4629L92.1522 93.6819C92.8216 94.9911 94.1553 95.8274 95.6253 95.8599C97.0953 95.8924 98.4646 95.1158 99.1912 93.8375L112.434 70.5398L109.889 123.718C109.887 123.762 109.886 123.806 109.885 123.85C109.885 123.853 109.885 123.857 109.885 123.86L49.891 131.507ZM113.801 68.133C113.801 68.133 113.801 68.1332 113.8 68.1336L113.801 68.133Z" stroke="#F5E537" stroke-width="8" stroke-linecap="round" stroke-linejoin="round"/>
</svg>
