<svg width="1247" height="483" viewBox="0 0 1247 483" fill="none" xmlns="http://www.w3.org/2000/svg">
<path d="M236.968 216.058C237.051 228.58 236.968 240.058 236.781 248.481C236.688 252.688 236.569 256.156 236.429 258.619C236.359 259.843 236.283 260.862 236.196 261.615C236.154 261.982 236.102 262.355 236.032 262.682C235.999 262.838 235.944 263.069 235.853 263.315C235.807 263.439 235.73 263.628 235.609 263.84C235.504 264.022 235.26 264.411 234.811 264.758C234.351 265.113 233.791 265.386 233.373 265.576C232.893 265.795 232.322 266.024 231.691 266.26C230.426 266.733 228.795 267.28 226.92 267.869C223.163 269.05 218.303 270.441 213.168 271.819C202.954 274.56 191.42 277.31 185.199 278.234C176.17 279.679 160.85 280.183 146.965 279.943C139.991 279.822 133.303 279.513 127.865 279.028C125.149 278.786 122.711 278.498 120.689 278.16C118.731 277.833 116.946 277.427 115.667 276.878L115.667 276.878L115.654 276.872C113.061 275.746 109.222 274.268 107.241 273.68L107.144 273.651L107.049 273.616C103.755 272.391 100.898 269.032 97.5693 263.621C94.1325 258.034 89.7787 249.518 83.7533 236.897C78.9601 227.067 72.5227 213.555 69.3803 206.913C66.2438 200.494 64.1866 194.442 63.3829 189.528C62.9823 187.078 62.8701 184.775 63.1711 182.791C63.4654 180.852 64.2242 178.805 65.9553 177.468C67.4669 176.301 69.2583 175.9 71.27 176.233C73.0905 176.534 75.0944 177.432 77.3644 178.744C81.9331 181.387 88.6666 186.371 99.0352 194.443L99.0484 194.453L99.0614 194.463C104.333 198.662 109.193 202.447 112.737 205.184C112.922 205.327 113.104 205.467 113.282 205.604C112.84 199.896 113.714 192.018 115.582 182.773C117.572 172.917 120.746 161.255 124.901 148.547L124.906 148.532L124.911 148.517C127.234 141.662 129.601 135.084 131.56 129.998C132.538 127.459 133.423 125.268 134.156 123.593C134.521 122.757 134.859 122.023 135.161 121.426C135.43 120.893 135.768 120.27 136.143 119.799L136.172 119.762L136.202 119.727C138.305 117.248 141.143 115.889 144.261 116.007C147.304 116.122 150.209 117.625 152.657 120.045C153.441 120.818 154.276 122.135 155.062 123.493C155.914 124.966 156.91 126.854 158.004 129.042C160.194 133.423 162.833 139.124 165.58 145.369C171.071 157.851 177.053 172.638 180.807 183.59L180.813 183.607L180.819 183.624C181.969 187.113 183.118 190.474 184.04 193.084C184.345 193.949 184.625 194.728 184.87 195.4C187.329 193.009 191.615 188.215 199.331 179.401C206.964 170.653 212.982 163.947 217.662 160.025C219.973 158.088 222.27 156.556 224.515 155.952C225.691 155.636 226.951 155.547 228.215 155.873C229.496 156.203 230.567 156.904 231.431 157.828C233.054 159.565 234.015 162.164 234.679 165.099C235.363 168.128 235.827 171.981 236.153 176.644C236.804 185.971 236.927 198.992 236.968 216.058ZM236.968 216.058C236.968 216.061 236.968 216.064 236.968 216.067L233.968 216.074L236.968 216.054C236.968 216.055 236.968 216.056 236.968 216.058ZM152.911 171.71C156.077 179.172 160.19 187.995 163.866 195.373C165.704 199.064 167.444 202.414 168.91 205.063C170.319 207.612 171.614 209.773 172.541 210.868L172.55 210.879L172.56 210.89C174.958 213.668 178.188 215.062 181.654 214.909C185.045 214.759 188.375 213.148 191.241 210.492L191.248 210.486L191.254 210.48C193.767 208.124 201.004 199.521 207.417 191.266C212.039 185.467 216.647 179.85 219.586 176.412L219.424 177.846L219.42 177.883L219.416 177.92C218.909 183.664 218.249 202.001 218.249 218.609C218.249 218.615 218.249 218.62 218.249 218.625L217.954 245.561L214.625 245.239C214.62 245.239 214.616 245.238 214.611 245.238C212.564 245.025 207.198 245.001 200.414 245.096C193.511 245.192 184.898 245.416 176.207 245.735L176.195 245.736C141.81 247.14 131.629 248.8 117.109 256.41L117.107 256.411C115.074 257.478 113.123 258.452 111.664 259.156C111.555 259.208 111.449 259.259 111.346 259.309C111.273 259.179 111.196 259.041 111.115 258.894C110.225 257.273 109.055 254.902 107.696 251.985C104.985 246.168 101.607 238.37 98.354 230.507C95.1011 222.645 91.9904 214.758 89.8114 208.767C89.4385 207.742 89.0949 206.778 88.7839 205.883C89.3271 206.322 89.9001 206.793 90.5003 207.294C95.0336 211.078 100.922 216.413 106.825 222.176L106.835 222.186L106.846 222.195C111.069 226.24 114.933 229.096 118.521 230.444C122.291 231.86 125.923 231.645 129.045 229.326L129.115 229.274L129.182 229.219C131.078 227.632 131.902 225.027 132.483 221.729C133.093 218.261 133.555 213.131 134.05 205.553C135.354 185.778 137.95 172.352 144.004 152.261L152.911 171.71ZM152.911 171.71C150.723 166.64 147.393 157.764 145.389 151.703C145.389 151.701 145.388 151.699 145.387 151.697L144.749 149.794L144.005 152.259L152.911 171.71ZM185.871 197.981C185.883 198.011 185.882 198.001 185.863 197.962L185.871 197.981ZM181.117 264.654L181.118 264.654C187.555 263.598 195.129 261.66 200.914 259.785C201.485 259.6 202.035 259.417 202.561 259.236C201.843 259.149 201.097 259.067 200.335 258.993C181.44 257.471 177.821 257.483 167.488 258.356C161.628 258.859 153.667 259.992 149.696 260.851L149.682 260.854L149.669 260.856C145.23 261.775 139.18 263.608 134.222 265.397C133.775 265.558 133.34 265.718 132.918 265.876C136.557 266.199 141.204 266.407 146.297 266.48C158.335 266.655 172.457 266.078 181.117 264.654Z" fill="#FFDC3F" fill-opacity="0.7"/>
<path d="M236.968 216.058C237.051 228.58 236.968 240.058 236.781 248.481C236.688 252.688 236.569 256.156 236.429 258.619C236.359 259.843 236.283 260.862 236.196 261.615C236.154 261.982 236.102 262.355 236.032 262.682C235.999 262.838 235.944 263.069 235.853 263.315C235.807 263.439 235.73 263.628 235.609 263.84C235.504 264.022 235.26 264.411 234.811 264.758C234.351 265.113 233.791 265.386 233.373 265.576C232.893 265.795 232.322 266.024 231.691 266.26C230.426 266.733 228.795 267.28 226.92 267.869C223.163 269.05 218.303 270.441 213.168 271.819C202.954 274.56 191.42 277.31 185.199 278.234C176.17 279.679 160.85 280.183 146.965 279.943C139.991 279.822 133.303 279.513 127.865 279.028C125.149 278.786 122.711 278.498 120.689 278.16C118.731 277.833 116.946 277.427 115.667 276.878L115.667 276.878L115.654 276.872C113.061 275.746 109.222 274.268 107.241 273.68L107.144 273.651L107.049 273.616C103.755 272.391 100.898 269.032 97.5693 263.621C94.1325 258.034 89.7787 249.518 83.7533 236.897C78.9601 227.067 72.5227 213.555 69.3803 206.913C66.2438 200.494 64.1866 194.442 63.3829 189.528C62.9823 187.078 62.8701 184.775 63.1711 182.791C63.4654 180.852 64.2242 178.805 65.9553 177.468C67.4669 176.301 69.2583 175.9 71.27 176.233C73.0905 176.534 75.0944 177.432 77.3644 178.744C81.9331 181.387 88.6666 186.371 99.0352 194.443L99.0484 194.453L99.0614 194.463C104.333 198.662 109.193 202.447 112.737 205.184C112.922 205.327 113.104 205.467 113.282 205.604C112.84 199.896 113.714 192.018 115.582 182.773C117.572 172.917 120.746 161.255 124.901 148.547L124.906 148.532L124.911 148.517C127.234 141.662 129.601 135.084 131.56 129.998C132.538 127.459 133.423 125.268 134.156 123.593C134.521 122.757 134.859 122.023 135.161 121.426C135.43 120.893 135.768 120.27 136.143 119.799L136.172 119.762L136.202 119.727C138.305 117.248 141.143 115.889 144.261 116.007C147.304 116.122 150.209 117.625 152.657 120.045C153.441 120.818 154.276 122.135 155.062 123.493C155.914 124.966 156.91 126.854 158.004 129.042C160.194 133.423 162.833 139.124 165.58 145.369C171.071 157.851 177.053 172.638 180.807 183.59L180.813 183.607L180.819 183.624C181.969 187.113 183.118 190.474 184.04 193.084C184.345 193.949 184.625 194.728 184.87 195.4C187.329 193.009 191.615 188.215 199.331 179.401C206.964 170.653 212.982 163.947 217.662 160.025C219.973 158.088 222.27 156.556 224.515 155.952C225.691 155.636 226.951 155.547 228.215 155.873C229.496 156.203 230.567 156.904 231.431 157.828C233.054 159.565 234.015 162.164 234.679 165.099C235.363 168.128 235.827 171.981 236.153 176.644C236.804 185.971 236.927 198.992 236.968 216.058ZM236.968 216.058C236.968 216.061 236.968 216.064 236.968 216.067L233.968 216.074L236.968 216.054C236.968 216.055 236.968 216.056 236.968 216.058ZM152.911 171.71C156.077 179.172 160.19 187.995 163.866 195.373C165.704 199.064 167.444 202.414 168.91 205.063C170.319 207.612 171.614 209.773 172.541 210.868L172.55 210.879L172.56 210.89C174.958 213.668 178.188 215.062 181.654 214.909C185.045 214.759 188.375 213.148 191.241 210.492L191.248 210.486L191.254 210.48C193.767 208.124 201.004 199.521 207.417 191.266C212.039 185.467 216.647 179.85 219.586 176.412L219.424 177.846L219.42 177.883L219.416 177.92C218.909 183.664 218.249 202.001 218.249 218.609C218.249 218.615 218.249 218.62 218.249 218.625L217.954 245.561L214.625 245.239C214.62 245.239 214.616 245.238 214.611 245.238C212.564 245.025 207.198 245.001 200.414 245.096C193.511 245.192 184.898 245.416 176.207 245.735L176.195 245.736C141.81 247.14 131.629 248.8 117.109 256.41L117.107 256.411C115.074 257.478 113.123 258.452 111.664 259.156C111.555 259.208 111.449 259.259 111.346 259.309C111.273 259.179 111.196 259.041 111.115 258.894C110.225 257.273 109.055 254.902 107.696 251.985C104.985 246.168 101.607 238.37 98.354 230.507C95.1011 222.645 91.9904 214.758 89.8114 208.767C89.4385 207.742 89.0949 206.778 88.7839 205.883C89.3271 206.322 89.9001 206.793 90.5003 207.294C95.0336 211.078 100.922 216.413 106.825 222.176L106.835 222.186L106.846 222.195C111.069 226.24 114.933 229.096 118.521 230.444C122.291 231.86 125.923 231.645 129.045 229.326L129.115 229.274L129.182 229.219C131.078 227.632 131.902 225.027 132.483 221.729C133.093 218.261 133.555 213.131 134.05 205.553C135.354 185.778 137.95 172.352 144.004 152.261L152.911 171.71ZM152.911 171.71C150.723 166.64 147.393 157.764 145.389 151.703C145.389 151.701 145.388 151.699 145.387 151.697L144.749 149.794L144.005 152.259L152.911 171.71ZM185.871 197.981C185.883 198.011 185.882 198.001 185.863 197.962L185.871 197.981ZM181.117 264.654L181.118 264.654C187.555 263.598 195.129 261.66 200.914 259.785C201.485 259.6 202.035 259.417 202.561 259.236C201.843 259.149 201.097 259.067 200.335 258.993C181.44 257.471 177.821 257.483 167.488 258.356C161.628 258.859 153.667 259.992 149.696 260.851L149.682 260.854L149.669 260.856C145.23 261.775 139.18 263.608 134.222 265.397C133.775 265.558 133.34 265.718 132.918 265.876C136.557 266.199 141.204 266.407 146.297 266.48C158.335 266.655 172.457 266.078 181.117 264.654Z" stroke="#FFD100" stroke-width="6"/>
<path d="M236.968 216.058C237.051 228.58 236.968 240.058 236.781 248.481C236.688 252.688 236.569 256.156 236.429 258.619C236.359 259.843 236.283 260.862 236.196 261.615C236.154 261.982 236.102 262.355 236.032 262.682C235.999 262.838 235.944 263.069 235.853 263.315C235.807 263.439 235.73 263.628 235.609 263.84C235.504 264.022 235.26 264.411 234.811 264.758C234.351 265.113 233.791 265.386 233.373 265.576C232.893 265.795 232.322 266.024 231.691 266.26C230.426 266.733 228.795 267.28 226.92 267.869C223.163 269.05 218.303 270.441 213.168 271.819C202.954 274.56 191.42 277.31 185.199 278.234C176.17 279.679 160.85 280.183 146.965 279.943C139.991 279.822 133.303 279.513 127.865 279.028C125.149 278.786 122.711 278.498 120.689 278.16C118.731 277.833 116.946 277.427 115.667 276.878L115.667 276.878L115.654 276.872C113.061 275.746 109.222 274.268 107.241 273.68L107.144 273.651L107.049 273.616C103.755 272.391 100.898 269.032 97.5693 263.621C94.1325 258.034 89.7787 249.518 83.7533 236.897C78.9601 227.067 72.5227 213.555 69.3803 206.913C66.2438 200.494 64.1866 194.442 63.3829 189.528C62.9823 187.078 62.8701 184.775 63.1711 182.791C63.4654 180.852 64.2242 178.805 65.9553 177.468C67.4669 176.301 69.2583 175.9 71.27 176.233C73.0905 176.534 75.0944 177.432 77.3644 178.744C81.9331 181.387 88.6666 186.371 99.0352 194.443L99.0484 194.453L99.0614 194.463C104.333 198.662 109.193 202.447 112.737 205.184C112.922 205.327 113.104 205.467 113.282 205.604C112.84 199.896 113.714 192.018 115.582 182.773C117.572 172.917 120.746 161.255 124.901 148.547L124.906 148.532L124.911 148.517C127.234 141.662 129.601 135.084 131.56 129.998C132.538 127.459 133.423 125.268 134.156 123.593C134.521 122.757 134.859 122.023 135.161 121.426C135.43 120.893 135.768 120.27 136.143 119.799L136.172 119.762L136.202 119.727C138.305 117.248 141.143 115.889 144.261 116.007C147.304 116.122 150.209 117.625 152.657 120.045C153.441 120.818 154.276 122.135 155.062 123.493C155.914 124.966 156.91 126.854 158.004 129.042C160.194 133.423 162.833 139.124 165.58 145.369C171.071 157.851 177.053 172.638 180.807 183.59L180.813 183.607L180.819 183.624C181.969 187.113 183.118 190.474 184.04 193.084C184.345 193.949 184.625 194.728 184.87 195.4C187.329 193.009 191.615 188.215 199.331 179.401C206.964 170.653 212.982 163.947 217.662 160.025C219.973 158.088 222.27 156.556 224.515 155.952C225.691 155.636 226.951 155.547 228.215 155.873C229.496 156.203 230.567 156.904 231.431 157.828C233.054 159.565 234.015 162.164 234.679 165.099C235.363 168.128 235.827 171.981 236.153 176.644C236.804 185.971 236.927 198.992 236.968 216.058ZM236.968 216.058C236.968 216.061 236.968 216.064 236.968 216.067L233.968 216.074L236.968 216.054C236.968 216.055 236.968 216.056 236.968 216.058ZM152.911 171.71C156.077 179.172 160.19 187.995 163.866 195.373C165.704 199.064 167.444 202.414 168.91 205.063C170.319 207.612 171.614 209.773 172.541 210.868L172.55 210.879L172.56 210.89C174.958 213.668 178.188 215.062 181.654 214.909C185.045 214.759 188.375 213.148 191.241 210.492L191.248 210.486L191.254 210.48C193.767 208.124 201.004 199.521 207.417 191.266C212.039 185.467 216.647 179.85 219.586 176.412L219.424 177.846L219.42 177.883L219.416 177.92C218.909 183.664 218.249 202.001 218.249 218.609C218.249 218.615 218.249 218.62 218.249 218.625L217.954 245.561L214.625 245.239C214.62 245.239 214.616 245.238 214.611 245.238C212.564 245.025 207.198 245.001 200.414 245.096C193.511 245.192 184.898 245.416 176.207 245.735L176.195 245.736C141.81 247.14 131.629 248.8 117.109 256.41L117.107 256.411C115.074 257.478 113.123 258.452 111.664 259.156C111.555 259.208 111.449 259.259 111.346 259.309C111.273 259.179 111.196 259.041 111.115 258.894C110.225 257.273 109.055 254.902 107.696 251.985C104.985 246.168 101.607 238.37 98.354 230.507C95.1011 222.645 91.9904 214.758 89.8114 208.767C89.4385 207.742 89.0949 206.778 88.7839 205.883C89.3271 206.322 89.9001 206.793 90.5003 207.294C95.0336 211.078 100.922 216.413 106.825 222.176L106.835 222.186L106.846 222.195C111.069 226.24 114.933 229.096 118.521 230.444C122.291 231.86 125.923 231.645 129.045 229.326L129.115 229.274L129.182 229.219C131.078 227.632 131.902 225.027 132.483 221.729C133.093 218.261 133.555 213.131 134.05 205.553C135.354 185.778 137.95 172.352 144.004 152.261L152.911 171.71ZM152.911 171.71C150.723 166.64 147.393 157.764 145.389 151.703C145.389 151.701 145.388 151.699 145.387 151.697L144.749 149.794L144.005 152.259L152.911 171.71ZM185.871 197.981C185.883 198.011 185.882 198.001 185.863 197.962L185.871 197.981ZM181.117 264.654L181.118 264.654C187.555 263.598 195.129 261.66 200.914 259.785C201.485 259.6 202.035 259.417 202.561 259.236C201.843 259.149 201.097 259.067 200.335 258.993C181.44 257.471 177.821 257.483 167.488 258.356C161.628 258.859 153.667 259.992 149.696 260.851L149.682 260.854L149.669 260.856C145.23 261.775 139.18 263.608 134.222 265.397C133.775 265.558 133.34 265.718 132.918 265.876C136.557 266.199 141.204 266.407 146.297 266.48C158.335 266.655 172.457 266.078 181.117 264.654Z" stroke="#FACE03" stroke-width="6"/>
<path d="M555.015 443.58L555.022 443.577C555.056 443.564 555.089 443.55 555.122 443.537C555.533 443.374 555.865 443.242 556.134 443.155C556.421 443.061 556.698 442.996 556.972 443.021C557.272 443.048 557.506 443.175 557.716 443.342C557.89 443.481 558.077 443.673 558.281 443.883C558.3 443.903 558.319 443.922 558.338 443.942C559.06 444.654 559.277 445.837 559.184 447.211C559.089 448.615 558.662 450.357 557.931 452.34C556.173 457.15 553.974 460.641 550.07 464.864C548.287 466.805 545.468 469.562 543.026 471.827C541.805 472.961 540.672 473.976 539.807 474.707C539.375 475.072 539.004 475.372 538.718 475.581C538.576 475.685 538.446 475.774 538.335 475.838C538.28 475.87 538.22 475.902 538.159 475.926C538.112 475.945 538.004 475.986 537.873 475.979C537.681 475.968 537.556 475.86 537.512 475.818C537.456 475.765 537.415 475.708 537.387 475.665C537.33 475.577 537.276 475.469 537.227 475.357C537.125 475.127 537.005 474.801 536.867 474.393C536.592 473.571 536.232 472.367 535.798 470.818C534.928 467.717 533.752 463.206 532.34 457.552M555.015 443.58L533.201 435.205L532.769 434.944C532.769 434.944 532.769 434.945 532.769 434.945C531.376 437.315 530.659 440.528 530.591 444.349C530.522 448.175 531.104 452.643 532.34 457.552M555.015 443.58L555.008 443.583C553.912 444.058 552.513 445.147 551.1 446.518C549.675 447.899 548.196 449.607 546.94 451.365L546.94 451.365L546.936 451.37C545.866 452.909 545.05 453.774 544.259 454.191C543.51 454.587 542.723 454.607 541.606 454.27L541.601 454.269C541.22 454.158 540.989 454.039 540.822 453.872C540.656 453.706 540.504 453.444 540.385 452.956C540.137 451.948 540.076 450.214 540.076 447.057L540.076 447.056C540.064 441.119 539.199 437.163 537.162 434.691L555.015 443.58ZM532.34 457.552L532.824 457.44L532.34 457.553C532.34 457.553 532.34 457.553 532.34 457.552ZM532.549 479.78C530.91 478.556 530.341 476.749 527.483 463.32L539.638 476.56C538.315 476.884 537.667 477.441 537.205 478.699C536.346 480.824 534.494 481.267 532.549 479.78ZM539.509 476.075C538.804 476.247 538.23 476.493 537.766 476.899C537.301 477.306 536.986 477.837 536.738 478.51C536.349 479.468 535.775 479.963 535.161 480.106C534.539 480.252 533.743 480.069 532.847 479.384L532.847 479.384L532.842 479.381C532.15 478.864 531.641 478.227 530.95 475.988C530.254 473.732 529.403 469.948 527.972 463.225L527.972 463.224C524.703 448 524.976 438.375 528.576 432.639C529.738 430.798 531.282 429.653 533.044 429.21C534.806 428.767 536.837 429.014 538.996 430.053C540.171 430.681 541.678 431.943 542.471 433.137L542.476 433.144L542.481 433.151C543.19 434.144 544.039 435.999 544.707 437.874C545.038 438.805 545.319 439.725 545.513 440.526C545.71 441.339 545.807 441.99 545.793 442.399C545.784 442.674 545.803 442.955 545.856 443.185C545.881 443.296 545.921 443.426 545.99 443.542C546.05 443.643 546.21 443.86 546.506 443.876C546.608 443.881 546.694 443.855 546.72 443.847L546.722 443.847C546.763 443.834 546.806 443.818 546.844 443.803C546.923 443.771 547.019 443.727 547.126 443.675C547.342 443.571 547.63 443.422 547.966 443.241C548.64 442.88 549.528 442.382 550.467 441.839C553.247 440.232 555.434 439.563 557.233 439.718C558.996 439.869 560.479 440.82 561.85 442.691C562.37 443.401 562.685 444.47 562.764 445.83C562.842 447.182 562.684 448.773 562.308 450.479C561.556 453.892 559.943 457.702 557.696 460.88L557.696 460.88L557.693 460.883C556.163 463.083 552.399 466.69 548.58 469.87C546.678 471.453 544.777 472.918 543.155 474.035C542.344 474.593 541.608 475.062 540.98 475.413C540.344 475.769 539.848 475.989 539.509 476.075Z" fill="black" stroke="black"/>
<path d="M888.591 408.174C888.718 408.78 888.921 411.524 889.035 414.3C889.118 417.075 889.411 422.407 889.612 426.087L890.036 432.811L892.229 429.785C895.38 425.463 898.298 421.914 898.739 421.938C899.739 421.992 898.665 424.143 894.22 431.053C890.923 436.228 889.98 438.012 890.374 438.557C890.486 438.713 893.037 439.113 896.061 439.426C901.612 439.988 903.135 440.258 904.848 441.024C905.922 441.531 906.273 442.486 905.63 443.2C904.955 443.987 903.092 444.186 897.023 444.158C893.929 444.14 891.276 444.184 891.065 444.323C890.854 444.461 891.374 445.65 892.546 447.622C894.637 451.18 896.432 454.758 896.494 455.548C896.605 456.64 896.416 457.004 895.857 456.974C895.504 456.954 894.205 455.274 892.272 452.287L889.246 447.594L888.991 449.939C888.83 451.24 888.66 453.664 888.574 455.345C888.402 459.603 887.33 466.995 886.767 467.976C886.233 468.958 885.553 469.033 885.231 468.08C885.095 467.736 884.969 465.333 884.938 462.748C884.928 458.629 884.261 448.635 884.009 448.247C883.951 448.206 882.588 450.192 880.972 452.688C877.429 458.187 877.09 458.618 876.511 458.324C875.673 457.83 876.164 456.359 879.103 450.415L882.103 444.437L875.139 443.837C867.911 443.221 866.45 442.843 866.668 441.619C866.92 440.248 870.641 439.138 876.578 438.71C878.35 438.582 880.389 438.43 881.069 438.354L882.311 438.234L879.875 433.535C876.36 426.719 874.544 422.877 874.838 422.893C875.074 422.905 876.904 425.438 882.161 433.022C884.129 435.861 884.186 435.902 884.222 434.818C884.244 434.183 884.57 430.606 884.932 426.807C885.295 423.008 885.808 417.383 886.06 414.252C886.341 411.122 886.702 408.259 886.894 407.82C887.371 406.76 888.278 406.959 888.591 408.174ZM887.62 431.033L887.41 436.413L888.052 435.736C888.755 434.988 888.735 435.586 888.427 427.183C888.251 422.756 887.862 424.682 887.62 431.033Z" fill="black"/>
<path d="M805.907 35.5805C802.819 37.6642 800.168 41.377 798.478 46.0748L797.429 48.9919L796.468 47.2492C794.516 43.7259 792.01 42.3241 789.854 43.4986C788.31 44.332 787.553 45.317 786.825 47.5144C785.368 51.947 785.863 57.1373 788.136 61.5319C789.767 64.6385 798.245 75.5116 799.032 75.5116C799.352 75.5116 799.76 75.8526 799.935 76.2693C800.401 77.368 801.508 77.2164 802.353 75.8905C802.761 75.2843 803.431 73.5416 803.868 72.0262C804.305 70.5108 805.936 65.5857 807.451 61.1152C811.355 49.636 811.938 47.2492 811.996 43.3091C812.025 40.6572 811.908 39.7858 811.355 38.3083C810.976 37.2854 810.335 36.1488 809.927 35.7321C809.024 34.8228 807.131 34.7471 805.907 35.5805ZM808.238 37.8536C809.112 38.3083 809.665 40.3162 809.636 43.1576C809.578 46.2263 808.908 49.2192 807.189 53.6518C806.519 55.3188 805.499 58.2359 804.858 60.1302C803.139 65.3584 799.818 73.9204 799.498 73.9583C799.352 73.9962 798.216 72.5187 797.021 70.7381C789.534 59.5619 788.573 57.6676 788.34 53.5381C788.223 51.3787 788.31 50.6589 788.922 48.954C790.583 44.2563 793.205 45.317 795.681 51.6818C796.992 55.0536 797.487 55.8113 798.332 55.8113C799.061 55.8113 799.643 54.4853 799.643 52.8562C799.672 48.1206 803.139 40.3541 806.111 38.4219C807.509 37.5506 807.538 37.5127 808.238 37.8536Z" fill="black"/>
<path d="M1239.36 18.744C1235.45 17.2297 1230.8 18.8257 1226.52 23.1447C1225.67 24.0252 1224.9 24.6286 1224.86 24.5068C1224.77 24.3982 1224.61 23.3579 1224.46 22.1505C1223.65 15.3359 1220.61 9.63037 1217.04 8.19717C1215.06 7.39525 1213.36 7.72904 1211.54 9.27872C1210.15 10.4974 1209.89 10.9107 1208.17 14.6389C1204.93 21.7081 1203.54 29.6509 1204.18 37.2574C1204.58 42.1015 1205.52 45.9195 1207 48.8272C1207.94 50.6781 1208.43 51.311 1209.85 52.3806L1211.57 53.6795L1211.07 54.7438C1210.67 55.5823 1210.66 55.9681 1211.07 56.6273C1212.1 58.2333 1213.62 57.6822 1219.44 53.7377C1221.52 52.2954 1225.18 49.8709 1227.56 48.3043C1232.86 44.8007 1237.48 40.9999 1239.36 38.6656C1241.44 36.0469 1243.54 31.3452 1243.93 28.5396C1244.55 23.7202 1242.9 20.1581 1239.36 18.744ZM1240.92 25.341C1241.29 27.2411 1240.57 29.4449 1238.65 32.3645C1236.52 35.6007 1233.84 38.2494 1229.47 41.4505C1227.39 42.9764 1224.63 44.9958 1223.4 45.9433C1222.13 46.904 1219.97 48.289 1218.58 49.0705C1217.15 49.8652 1215.36 50.9133 1214.55 51.3949C1213.32 52.1238 1212.99 52.1777 1212.69 51.6463C1212.47 51.3072 1211.88 50.6816 1211.35 50.2804C1209.43 48.7452 1208.26 45.1088 1207.83 39.1014C1207.27 31.4686 1207.51 27.6741 1208.89 22.6049C1212.11 10.9781 1215.5 8.64557 1219.05 15.6587C1220.63 18.8614 1221.31 22.8742 1221.07 27.8451C1220.86 32.0958 1221.07 33.2578 1222.17 34.0469C1223.62 35.1034 1224.7 34.3434 1226.91 30.7788C1228.5 28.2666 1231.91 24.6418 1233.88 23.4253C1237.19 21.389 1240.3 22.2085 1240.92 25.341Z" fill="black"/>
<path d="M518.721 47.4326C516.222 48.2559 508.622 52.5778 505.447 54.8932C503.521 56.3853 503 57.0542 503 58.2376C503 60.5529 505.082 60.6043 508.049 58.289C509.351 57.3114 512.786 54.9961 515.649 53.1953C520.074 50.314 522 48.616 522 47.5355C522 46.8667 520.438 46.8152 518.721 47.4326Z" fill="black"/>
<path d="M423.673 65.6146C422.759 66.2814 422.759 66.3327 423.775 66.8457C425.146 67.6151 433.069 69 435.863 69C438.504 69 439.774 67.8715 438.504 66.5892C437.133 65.153 425.349 64.3836 423.673 65.6146Z" fill="black"/>
<path d="M510.609 71.4155C503.198 71.8253 501 72.4911 501 74.2325C501 76.3837 503.044 76.4861 513.522 75.0008C521.598 73.8228 524 73.1569 524 72.1838C524 70.8009 522.824 70.7497 510.609 71.4155Z" fill="black"/>
<path d="M433.525 82.7887C429.02 84.4586 427 85.8406 427 87.2226C427 88.2591 429.02 88.2591 432.903 87.2226C435.182 86.5892 438.185 85.8982 439.531 85.7255C444.606 84.9769 445.745 81.2339 440.93 81.0036C439.48 80.946 436.787 81.5794 433.525 82.7887Z" fill="black"/>
<path d="M499.762 86.6169C498.738 87.6935 498.738 88.0524 499.811 89.0265C500.64 89.8468 509.369 92 511.759 92C514.588 92 512.247 89.129 508.101 87.4884C504.005 85.8991 500.786 85.5403 499.762 86.6169Z" fill="black"/>
<path d="M443.868 99.4327C441.684 101.324 439.603 103.427 439.291 104.11C438.719 105.423 439.031 107 439.863 107C440.696 107 450.057 99.5903 450.681 98.4342C451.097 97.6459 451.097 97.0679 450.733 96.6475C449.641 95.2811 447.821 96.0169 443.868 99.4327Z" fill="black"/>
<path d="M30.3443 315.523C28.793 315.875 26.7892 316.608 25.6904 317.341C23.7513 318.543 21.1012 321.769 21.1012 322.912C21.1012 323.205 20.9719 323.469 20.778 323.469C20.5841 323.469 18.5803 322.883 16.318 322.179C9.53108 320.068 5.13575 320.156 1.45142 322.384C-1.65117 324.261 0.417223 329.686 5.78212 333.674C9.46644 336.459 23.9452 342.822 27.8881 343.409C29.504 343.643 30.2796 343.995 30.7967 344.758C31.7663 346.048 34.0286 346.37 36.4848 345.549C38.5532 344.875 39.3289 343.819 43.401 335.932C48.0549 326.988 48.1842 321.153 43.8535 317.517C41.0094 315.142 35.9677 314.379 30.3443 315.523ZM37.519 319.042C40.6216 321.827 40.4923 326.548 37.0666 332.266C33.1237 338.893 30.5382 342.822 30.0857 342.822C29.3747 342.822 20.1962 338.336 15.9948 335.932C11.4056 333.322 8.88471 331.211 6.94559 328.337C5.32966 325.962 5.20038 324.261 6.6224 323.645C7.85051 323.088 7.78587 323.088 10.0482 323.587C12.5044 324.173 16.5119 326.226 19.4206 328.366C21.9414 330.272 23.5574 330.741 26.5307 330.389C28.5991 330.155 28.9223 329.598 29.1808 325.874C29.4394 322.355 30.6675 320.127 33.1237 318.807C34.9335 317.81 36.2263 317.869 37.519 319.042Z" fill="black"/>
<path d="M446.553 250.549C442.934 254.323 440.672 257.764 439.767 261.093L438.41 266.088L434.904 262.869C430.154 258.43 427.326 257.209 422.011 257.209C417.939 257.209 417.034 257.653 415.112 260.76C410.362 268.53 412.85 277.631 421.784 284.956L427.666 289.84L423.368 291.948C410.136 298.497 401.427 314.923 408.552 319.807C412.058 322.248 416.582 322.026 425.856 318.919C430.267 317.365 433.886 316.255 433.999 316.366C434.112 316.477 433.66 319.141 433.094 322.137C430.493 335.012 435.017 346 442.82 346C448.136 346 452.999 341.671 455.261 334.901C456.279 331.793 457.297 329.352 457.41 329.352C457.636 329.352 459.106 331.238 460.69 333.68C462.499 336.233 465.666 338.897 468.833 340.451C475.619 343.669 479.577 342.337 482.97 335.567C487.267 326.799 485.345 315.811 478.333 308.708L474.94 305.267L480.029 304.712C482.857 304.379 487.607 302.936 490.547 301.493C504.119 294.834 504.571 280.295 491.339 277.076C486.702 275.855 486.476 275.633 487.946 273.968C490.887 270.86 493.262 263.979 492.47 261.093C491.452 257.32 486.815 253.879 482.517 253.879C478.785 253.879 470.077 257.431 467.023 260.095C465.327 261.648 465.101 261.315 464.422 256.987C463.291 249.44 460.011 245 455.6 245C452.773 245 450.85 246.11 446.553 250.549ZM458.428 254.989C459.333 258.43 458.315 264.312 454.13 280.073C453.904 280.738 452.207 281.515 450.285 281.848C446.326 282.403 445.648 280.96 445.648 272.081C445.648 261.426 450.963 249.884 455.6 250.771C456.618 250.993 457.862 252.88 458.428 254.989ZM485.458 260.982C488.285 265.089 481.386 277.409 474.148 281.182C469.851 283.513 466.458 287.62 465.892 291.504C465.101 296.499 468.493 295.278 475.279 288.175C481.5 281.626 482.404 281.071 486.928 281.071C495.637 281.071 498.803 286.399 494.279 293.502C489.303 301.604 475.392 306.266 469.059 302.159C465.327 299.829 461.595 300.716 463.856 303.38C464.648 304.379 467.476 306.599 470.19 308.375C472.904 310.262 475.732 313.147 476.636 314.812C479.464 320.029 480.029 328.353 478.107 333.014C476.523 336.566 475.732 337.121 472.678 337.121C465.779 337.121 458.089 325.356 458.089 314.701C458.089 312.259 457.636 309.374 456.958 308.264C456.166 306.821 456.505 304.823 458.202 300.938C460.124 296.943 460.464 294.39 459.898 290.173C459.446 285.622 459.785 283.624 462.047 279.074C466.797 269.973 473.922 260.76 477.202 259.651C480.482 258.541 484.214 259.207 485.458 260.982ZM428.457 262.203C429.814 263.202 432.189 266.199 433.886 268.863C435.469 271.637 437.166 273.857 437.731 273.857C438.183 273.857 439.201 276.188 439.88 279.074C441.35 284.512 441.35 284.401 436.374 287.287C433.547 288.841 431.285 287.398 424.386 279.962C417.713 272.858 416.017 267.642 418.957 263.313C421.106 260.095 424.725 259.762 428.457 262.203ZM451.868 293.835C453.112 300.827 450.737 302.381 445.195 298.164C443.273 296.61 442.255 294.834 442.255 292.614C442.255 289.618 442.594 289.396 446.666 289.396C450.963 289.396 451.077 289.507 451.868 293.835ZM438.636 298.497L441.124 303.047L436.826 307.154C434.338 309.374 430.493 312.148 428.005 313.258C422.576 315.7 413.415 316.81 412.397 315.034C411.153 313.036 413.755 306.71 417.148 303.491C420.767 300.162 431.85 293.835 434.338 293.835C435.243 293.835 437.166 295.944 438.636 298.497ZM451.077 306.932C452.999 308.153 453.225 324.912 451.416 331.238C449.719 337.232 445.535 342.226 442.934 341.227C438.636 339.563 437.618 328.575 440.672 318.142C443.838 307.487 446.779 304.379 451.077 306.932Z" fill="#E25D5D"/>
<path d="M415.964 261.284C416.921 259.737 417.505 259.071 418.211 258.709C418.945 258.334 419.956 258.209 422.011 258.209C424.588 258.209 426.473 258.505 428.268 259.29C430.08 260.083 431.876 261.409 434.221 263.6L434.227 263.606L437.733 266.825L438.944 267.936L439.375 266.35L440.732 261.356C441.574 258.257 443.707 254.961 447.273 251.243C449.414 249.032 450.893 247.726 452.147 246.965C453.35 246.234 454.355 246 455.6 246C457.422 246 459.069 246.901 460.436 248.756C461.819 250.634 462.882 253.457 463.433 257.135L463.434 257.142C463.603 258.221 463.75 259.087 463.902 259.743C464.042 260.347 464.226 260.965 464.568 261.381C464.769 261.625 465.06 261.847 465.454 261.919C465.828 261.987 466.159 261.895 466.401 261.788C466.841 261.593 467.285 261.211 467.69 260.84C469.09 259.623 471.897 258.123 474.89 256.915C477.903 255.699 480.859 254.879 482.517 254.879C484.412 254.879 486.444 255.644 488.134 256.879C489.829 258.117 491.07 259.745 491.504 261.354L491.506 261.358C491.651 261.887 491.67 262.701 491.521 263.744C491.374 264.767 491.078 265.931 490.663 267.118C489.827 269.513 488.558 271.867 487.22 273.281L487.208 273.293L487.197 273.306C486.85 273.698 486.467 274.147 486.279 274.603C486.174 274.859 486.097 275.189 486.17 275.556C486.244 275.93 486.449 276.216 486.675 276.424C487.075 276.793 487.683 277.041 488.327 277.257C489.014 277.488 489.929 277.739 491.084 278.043L491.093 278.045L491.103 278.047C497.339 279.564 500.133 283.643 499.995 287.962C499.854 292.366 496.656 297.382 490.107 300.596C488.338 301.463 485.881 302.334 483.624 302.946C488.261 301.143 492.679 298.015 495.127 294.033C497.479 290.337 498.017 286.8 496.426 284.113C494.848 281.449 491.433 280.071 486.928 280.071C484.622 280.071 483.032 280.208 481.219 281.314C479.512 282.355 477.633 284.245 474.555 287.485M415.964 261.284L475.279 288.175M415.964 261.284C413.732 264.935 413.21 268.867 414.281 272.759C415.357 276.673 418.067 280.615 422.419 284.183L422.423 284.187L428.304 289.07L429.493 290.057L428.106 290.737L423.811 292.845M415.964 261.284L423.811 292.845M474.555 287.485C474.555 287.486 474.554 287.486 474.554 287.486L475.279 288.175M474.555 287.485C474.555 287.485 474.556 287.484 474.556 287.484L475.279 288.175M474.555 287.485C472.875 289.244 471.421 290.621 470.204 291.621C468.967 292.638 468.04 293.209 467.409 293.434C467.115 293.539 466.959 293.541 466.902 293.534M475.279 288.175C468.493 295.278 465.101 296.499 465.892 291.504C466.458 287.62 469.851 283.513 474.148 281.182M466.902 293.534C466.904 293.537 466.905 293.539 466.907 293.542C466.911 293.548 466.887 293.532 466.893 293.533C466.895 293.533 466.899 293.534 466.902 293.534ZM466.902 293.534C466.873 293.484 466.81 293.337 466.787 293.017C466.764 292.687 466.788 292.24 466.88 291.661L466.882 291.648L466.882 291.648C467.388 288.174 470.503 284.299 474.618 282.065M474.618 282.065C474.616 282.066 474.613 282.068 474.611 282.069L474.148 281.182M474.618 282.065C474.62 282.064 474.623 282.063 474.625 282.061L474.148 281.182M474.618 282.065C478.467 280.056 482.12 275.857 484.45 271.696C485.622 269.603 486.493 267.461 486.882 265.539C487.262 263.658 487.221 261.779 486.282 260.415L486.277 260.409C485.435 259.206 483.88 258.518 482.258 258.248C480.599 257.971 478.679 258.095 476.881 258.703C475.836 259.057 474.64 259.98 473.424 261.154C472.175 262.359 470.797 263.938 469.386 265.751C466.564 269.379 463.563 274.008 461.16 278.611L461.156 278.62L461.151 278.629C460.007 280.93 459.309 282.664 458.972 284.436C458.635 286.214 458.673 287.963 458.903 290.271L458.905 290.288L458.907 290.305C459.183 292.362 459.229 293.952 458.994 295.488C458.76 297.023 458.235 298.562 457.301 300.505L457.293 300.521L457.285 300.538C456.429 302.5 455.88 304.061 455.661 305.349C455.438 306.663 455.545 307.769 456.081 308.745L456.092 308.765L456.104 308.785C456.337 309.165 456.596 309.999 456.792 311.15C456.98 312.26 457.089 313.536 457.089 314.701C457.089 320.249 459.083 326.041 461.958 330.453C463.399 332.662 465.082 334.561 466.888 335.916C468.688 337.267 470.668 338.121 472.678 338.121C474.221 338.121 475.482 337.995 476.543 337.2C477.556 336.441 478.238 335.176 479.02 333.421L479.026 333.409L479.031 333.396C480.073 330.87 480.411 327.452 480.15 324.045C479.888 320.629 479.013 317.098 477.516 314.336L477.515 314.335C476.994 313.375 475.98 312.157 474.801 310.971C473.606 309.77 472.175 308.536 470.761 307.554L470.749 307.546L470.737 307.538C469.404 306.666 468.043 305.684 466.921 304.8C465.77 303.894 464.954 303.155 464.64 302.759L464.63 302.746L464.619 302.733C464.246 302.294 464.183 302.05 464.172 301.971M474.148 281.182C481.386 277.409 488.285 265.089 485.458 260.982M485.458 260.982L479.916 303.718C479.915 303.719 479.914 303.719 479.912 303.719L474.832 304.273L472.776 304.497L472.801 304.522M485.458 260.982C484.214 259.207 480.482 258.541 477.202 259.651C473.922 260.76 466.797 269.973 462.047 279.074L485.458 260.982ZM464.172 301.971C464.165 301.976 464.16 301.981 464.156 301.984M464.172 301.971C464.169 301.952 464.17 301.943 464.169 301.943C464.169 301.943 464.169 301.944 464.168 301.947C464.165 301.964 464.16 301.976 464.156 301.984M464.172 301.971C464.208 301.946 464.285 301.907 464.44 301.87C465.201 301.69 466.787 301.921 468.522 303.003M464.156 301.984C464.15 301.995 464.146 301.999 464.145 301.998C464.144 301.998 464.146 301.993 464.156 301.984ZM468.522 303.003C468.52 303.002 468.517 303 468.515 302.998L469.059 302.159L468.529 303.008C468.527 303.006 468.525 303.005 468.522 303.003ZM468.522 303.003C469.754 303.8 471.213 304.291 472.801 304.522M472.801 304.522L474.228 305.969L477.621 309.41L477.621 309.41C484.345 316.222 486.175 326.752 482.074 335.123C480.42 338.421 478.74 340.159 476.849 340.809C474.958 341.458 472.573 341.117 469.267 339.55C466.247 338.066 463.224 335.518 461.517 333.118C460.718 331.887 459.945 330.79 459.335 329.993C459.031 329.595 458.758 329.258 458.537 329.014C458.429 328.895 458.316 328.777 458.206 328.682C458.153 328.636 458.078 328.575 457.988 328.52L457.987 328.519C457.931 328.485 457.713 328.352 457.41 328.352C457.02 328.352 456.773 328.574 456.733 328.611L456.73 328.613C456.653 328.682 456.601 328.749 456.577 328.782C456.524 328.853 456.481 328.926 456.454 328.975C456.394 329.083 456.328 329.218 456.261 329.365C456.123 329.665 455.946 330.085 455.745 330.593C455.342 331.61 454.826 333.016 454.312 334.587C452.128 341.121 447.547 345 442.82 345C439.476 345 436.675 342.662 434.981 338.518C433.29 334.382 432.804 328.624 434.074 322.335L434.077 322.323L434.077 322.323C434.36 320.821 434.617 319.396 434.788 318.328C434.874 317.797 434.94 317.341 434.978 317.006C434.997 316.841 435.011 316.684 435.015 316.553C435.017 316.49 435.018 316.403 435.008 316.312C435.003 316.267 434.993 316.192 434.968 316.104C434.95 316.042 434.887 315.837 434.699 315.652C434.442 315.4 434.137 315.37 434.089 315.365C434.087 315.365 434.086 315.365 434.085 315.365C433.99 315.355 433.909 315.359 433.866 315.362C433.773 315.368 433.681 315.384 433.609 315.398C433.456 315.427 433.261 315.475 433.042 315.533C432.598 315.651 431.982 315.833 431.242 316.063C429.759 316.525 427.743 317.194 425.531 317.973M472.801 304.522C473.472 304.619 474.166 304.67 474.876 304.678C475.097 304.68 475.319 304.678 475.543 304.673L425.531 317.973M423.811 292.845C423.811 292.845 423.81 292.845 423.81 292.845C417.393 296.022 412.057 301.61 409.209 306.971C407.784 309.653 407.02 312.209 407 314.323C406.981 316.412 407.679 317.996 409.118 318.982L409.118 318.982L409.124 318.986C412.179 321.114 416.238 321.086 425.531 317.973M423.811 292.845L425.531 317.973M482.97 335.567C487.267 326.799 485.345 315.811 478.333 308.708L482.97 335.567ZM482.97 335.567C479.577 342.337 475.619 343.669 468.833 340.451C465.666 338.897 462.499 336.233 460.69 333.68C459.702 332.157 458.758 330.85 458.133 330.082C458.164 330.018 458.186 329.975 458.2 329.95C458.202 329.946 458.204 329.943 458.205 329.942C458.202 329.947 458.193 329.96 458.18 329.978C458.172 329.988 458.149 330.018 458.113 330.057L482.97 335.567ZM459.394 254.73L459.395 254.735C459.904 256.67 459.843 259.177 459.173 263.08C458.5 266.999 457.189 272.448 455.097 280.329L455.088 280.362L455.077 280.394C454.927 280.836 454.595 281.158 454.318 281.374C454.018 281.607 453.652 281.814 453.262 281.994C452.479 282.354 451.489 282.655 450.455 282.834L450.44 282.836L450.424 282.839C449.403 282.982 448.432 283.025 447.589 282.759C446.671 282.468 446.014 281.849 445.578 280.931C445.169 280.067 444.948 278.929 444.82 277.522C444.69 276.099 444.648 274.307 444.648 272.081C444.648 266.606 446.009 260.913 447.978 256.676C448.961 254.561 450.122 252.752 451.39 251.513C452.643 250.289 454.161 249.478 455.788 249.789L455.801 249.792L455.813 249.794C456.301 249.901 456.722 250.18 457.06 250.483C457.407 250.795 457.728 251.187 458.016 251.618C458.59 252.479 459.085 253.579 459.394 254.73ZM429.005 261.366L429.028 261.382L429.05 261.398C429.84 261.979 430.841 263.066 431.822 264.28C432.821 265.516 433.861 266.962 434.729 268.325L434.742 268.346L434.754 268.367C435.529 269.725 436.325 270.934 436.983 271.791C437.315 272.223 437.594 272.542 437.805 272.744C437.873 272.809 437.925 272.852 437.96 272.88C438.294 272.948 438.521 273.148 438.617 273.241C438.77 273.387 438.898 273.562 439.003 273.725C439.218 274.058 439.434 274.5 439.643 274.996C440.062 275.996 440.5 277.348 440.85 278.828L440.88 278.943C441.226 280.219 441.505 281.251 441.639 282.086C441.78 282.96 441.792 283.771 441.462 284.535C441.134 285.292 440.536 285.849 439.807 286.366C439.137 286.842 438.245 287.358 437.149 287.994C437.059 288.046 436.968 288.098 436.876 288.152L436.866 288.158L436.856 288.163C436.038 288.612 435.184 288.886 434.232 288.842C433.291 288.799 432.363 288.45 431.383 287.847C429.466 286.668 427.086 284.342 423.655 280.644C420.282 277.054 418.073 273.846 417.116 270.907C416.138 267.906 416.471 265.195 418.128 262.755C419.348 260.928 421.041 259.857 423.004 259.642C424.939 259.429 427.006 260.059 429.005 261.366ZM438.021 272.922C438.021 272.921 438.016 272.918 438.007 272.914C438.016 272.92 438.021 272.922 438.021 272.922ZM452.852 293.655L452.853 293.66C453.172 295.453 453.274 296.974 453.122 298.18C452.972 299.367 452.547 300.44 451.622 301.042C450.685 301.651 449.542 301.58 448.426 301.196C447.298 300.808 446.013 300.043 444.59 298.959L444.578 298.951L444.567 298.941C442.47 297.247 441.255 295.206 441.255 292.614C441.255 291.872 441.273 291.196 441.394 290.636C441.523 290.039 441.789 289.475 442.347 289.071C442.857 288.702 443.493 288.557 444.148 288.483C444.815 288.409 445.653 288.396 446.666 288.396C447.723 288.396 448.603 288.401 449.304 288.488C450.015 288.577 450.684 288.763 451.232 289.233C451.776 289.698 452.071 290.332 452.282 291.023C452.492 291.709 452.657 292.59 452.852 293.655ZM439.502 297.998L439.508 298.007L439.513 298.017L442.001 302.568L442.369 303.24L441.815 303.77L437.517 307.877L437.505 307.889L437.492 307.9C434.97 310.15 431.037 313 428.414 314.171C425.585 315.443 421.834 316.352 418.663 316.721C417.077 316.906 415.589 316.962 414.404 316.844C413.814 316.786 413.256 316.681 412.786 316.504C412.34 316.336 411.837 316.053 411.54 315.548C411.049 314.749 411.016 313.695 411.146 312.71C411.283 311.675 411.627 310.51 412.109 309.34C413.068 307.007 414.638 304.493 416.459 302.766L416.465 302.76L416.47 302.755C418.369 301.009 422.128 298.549 425.675 296.544C427.46 295.535 429.221 294.624 430.704 293.963C431.445 293.632 432.13 293.357 432.722 293.163C433.29 292.977 433.861 292.835 434.338 292.835C434.896 292.835 435.405 293.131 435.768 293.393C436.173 293.684 436.596 294.08 437.011 294.532C437.846 295.441 438.736 296.668 439.502 297.998ZM451.587 306.072L451.6 306.08L451.613 306.088C451.934 306.292 452.147 306.592 452.29 306.849C452.441 307.12 452.565 307.434 452.67 307.765C452.881 308.427 453.05 309.268 453.185 310.214C453.457 312.113 453.61 314.566 453.646 317.157C453.717 322.307 453.325 328.201 452.378 331.512C451.495 334.631 449.962 337.508 448.278 339.501C447.438 340.494 446.524 341.311 445.591 341.812C444.662 342.311 443.596 342.553 442.575 342.161L442.572 342.16C441.157 341.612 440.135 340.349 439.428 338.801C438.715 337.24 438.262 335.266 438.05 333.068C437.627 328.668 438.154 323.185 439.712 317.861L439.713 317.857C441.295 312.534 442.874 308.881 444.718 306.902C445.669 305.883 446.747 305.245 447.977 305.114C449.193 304.984 450.401 305.368 451.587 306.072Z" stroke="#FF169E" stroke-opacity="0.75" stroke-width="2"/>
<path d="M480.907 51.5805C477.819 53.6642 475.168 57.377 473.478 62.0748L472.429 64.9919L471.468 63.2492C469.516 59.7259 467.01 58.3241 464.854 59.4986C463.31 60.332 462.553 61.317 461.825 63.5144C460.368 67.947 460.863 73.1373 463.136 77.5319C464.767 80.6385 473.245 91.5116 474.032 91.5116C474.352 91.5116 474.76 91.8526 474.935 92.2693C475.401 93.368 476.508 93.2164 477.353 91.8905C477.761 91.2843 478.431 89.5416 478.868 88.0262C479.305 86.5108 480.936 81.5857 482.451 77.1152C486.355 65.636 486.938 63.2492 486.996 59.3091C487.025 56.6572 486.908 55.7858 486.355 54.3083C485.976 53.2854 485.335 52.1488 484.927 51.7321C484.024 50.8228 482.131 50.7471 480.907 51.5805ZM483.238 53.8536C484.112 54.3083 484.665 56.3162 484.636 59.1576C484.578 62.2263 483.908 65.2192 482.189 69.6518C481.519 71.3188 480.499 74.2359 479.858 76.1302C478.139 81.3584 474.818 89.9204 474.498 89.9583C474.352 89.9962 473.216 88.5187 472.021 86.7381C464.534 75.5619 463.573 73.6676 463.34 69.5381C463.223 67.3787 463.31 66.6589 463.922 64.954C465.583 60.2563 468.205 61.317 470.681 67.6818C471.992 71.0536 472.487 71.8113 473.332 71.8113C474.061 71.8113 474.643 70.4853 474.643 68.8562C474.672 64.1206 478.139 56.3541 481.111 54.4219C482.509 53.5506 482.538 53.5127 483.238 53.8536Z" fill="black"/>
</svg>
