<svg width="330" height="68" viewBox="0 0 330 68" fill="none" xmlns="http://www.w3.org/2000/svg">
<path d="M92.8296 46.8015L92.8072 46.7545C92.7197 46.7996 92.6504 46.8626 92.597 46.9259L92.8296 46.8015ZM92.4513 47.1698L92.4514 47.17L92.4514 47.1701L92.4517 47.1706C92.4576 47.1727 92.4635 47.1748 92.4694 47.1767C93.2705 48.4888 94.0748 49.1684 94.5811 49.5223L94.6249 49.5529L94.6742 49.5736C94.7376 49.6002 94.8024 49.6279 94.8683 49.6561C95.176 49.7879 95.5065 49.9295 95.8203 50.0069C96.206 50.1021 96.6254 50.1183 97.0523 49.9198C98.2313 49.6971 99.2443 48.7601 100.114 47.6651C100.978 46.5787 101.781 45.2298 102.527 43.9781L102.629 43.8068L102.63 43.805C103.23 42.7895 103.822 41.7521 104.414 40.7151C105.843 38.2134 107.271 35.714 108.791 33.5311C110.947 30.4357 113.204 28.1103 115.759 27.3447L115.763 27.3435C118.257 26.5744 120.592 27.0259 122.864 28.2798C125.152 29.5423 127.354 31.6084 129.538 34.03C131.001 35.6531 132.434 37.4106 133.871 39.1723C134.581 40.0425 135.291 40.9138 136.007 41.7703C138.154 44.3413 140.335 46.7677 142.602 48.5206C143.784 49.5119 144.807 50.205 145.836 50.6015C146.872 51.0006 147.888 51.0887 149.04 50.9205C149.473 50.9081 150.049 50.7012 150.597 50.4141C151.172 50.1125 151.793 49.6818 152.3 49.1563C152.959 48.6331 153.563 47.9529 154.126 47.2606C154.396 46.9284 154.646 46.6078 154.89 46.2946C155.186 45.9147 155.474 45.5456 155.779 45.1798L155.788 45.1697L155.796 45.1593C158.381 41.7089 160.876 38.4146 163.505 36.3367C164.813 35.303 166.129 34.5926 167.477 34.307C168.815 34.0235 170.217 34.1517 171.722 34.8446L171.728 34.8472C174.179 35.9373 176.374 38.2983 178.579 41.0805C179.241 41.9162 179.904 42.7906 180.574 43.6726C182.1 45.685 183.656 47.7368 185.298 49.4576L185.306 49.4662L185.314 49.4744C186.174 50.2936 187.083 51.0819 188.042 51.5287C189.026 51.9874 190.088 52.0962 191.189 51.522C192.321 50.9712 193.354 49.8189 194.278 48.4996C195.214 47.1638 196.084 45.5862 196.865 44.1128C199.13 39.8537 201.331 35.8909 203.731 32.9916C206.133 30.0899 208.658 28.3472 211.555 28.3472C214.499 28.3472 217.262 30.0477 220.145 32.0221C220.43 32.2169 220.716 32.4145 221.003 32.6131C223.566 34.3853 226.234 36.2304 229.078 36.8422L229.081 36.8427C232.476 37.5548 235.461 35.4017 238.257 32.7963C241.534 29.8508 244.73 27.3141 248.189 26.3672C251.873 25.4017 255.646 25.1572 259.453 25.1165C260.901 25.101 262.365 25.1154 263.83 25.1298C266.184 25.1529 268.542 25.1761 270.851 25.0754C278.649 24.9118 286.486 24.7483 294.324 24.5848L294.342 24.5844C302.173 24.421 310.004 24.2576 317.796 24.0941C318.719 24.0968 319.532 24.8536 320.136 26.3385C320.728 27.7938 321.035 29.7696 321.035 31.7731C321.035 33.7766 320.728 35.7524 320.136 37.2077C319.531 38.6953 318.717 39.4521 317.791 39.4521C315.908 39.4521 314.027 39.5343 312.159 39.6159L312.153 39.6161C310.279 39.698 308.418 39.7792 306.559 39.7791L306.548 39.7793C291.262 40.1065 275.82 40.4336 260.378 40.7607C259.682 40.7606 258.98 40.7477 258.272 40.7346C255.395 40.6814 252.434 40.6267 249.487 41.4327L249.487 41.4326L249.476 41.4361C246.101 42.4472 242.915 45.1194 239.837 47.7015L239.782 47.748C238.225 49.0536 236.694 50.2557 235.156 51.1317C233.62 52.007 232.107 52.5384 230.587 52.5384C227.628 52.5384 224.616 50.981 221.659 49.0228L221.651 49.0175L221.643 49.0126C220.914 48.5688 220.189 48.0818 219.446 47.5834C218.959 47.2564 218.465 46.9245 217.957 46.5966C216.7 45.7845 215.397 45.0222 214.083 44.5522C212.764 44.0805 211.402 43.8918 210.041 44.2648C208.678 44.6384 207.383 45.5573 206.165 47.1742C204.35 49.5371 202.781 52.4745 201.247 55.3439C200.844 56.0988 200.443 56.849 200.041 57.5828C198.086 61.15 196.107 64.3163 193.644 66.04C192.393 66.8883 191.162 67.2618 189.956 67.2759C188.744 67.2901 187.525 66.9417 186.302 66.2961C183.846 64.9986 181.444 62.5349 179.196 59.6089C178.746 58.9938 178.282 58.3354 177.806 57.66C176.413 55.6847 174.918 53.5644 173.385 51.9572C172.352 50.8742 171.261 49.9775 170.123 49.5089C168.962 49.0313 167.751 49.0003 166.548 49.6527C165.203 50.3591 163.979 51.6572 162.842 53.0965C162.144 53.9805 161.448 54.958 160.767 55.9149C160.344 56.5097 159.927 57.0965 159.518 57.6479L159.513 57.6543L159.509 57.6608C158.266 59.4529 156.994 61.1483 155.692 62.5543C154.386 63.9635 153.073 65.0562 151.752 65.6716L151.745 65.6752L151.737 65.6791C149.309 66.9134 146.965 66.8416 144.643 65.9063C142.299 64.9625 139.978 63.1384 137.655 60.8661C135.663 58.7761 133.767 56.4099 131.863 54.0333C131.699 53.8291 131.535 53.6249 131.371 53.4207C129.307 50.8476 127.223 48.29 125.015 46.1396C123.211 44.3311 121.365 42.9253 119.451 42.5685C117.469 42.199 115.546 42.972 113.675 45.1899C111.731 47.455 110.021 50.5314 108.335 53.5648C108.159 53.8814 107.984 54.1976 107.808 54.5123C105.929 57.8785 104.053 61.0787 101.857 63.1432L101.855 63.1456C99.3695 65.5145 96.9783 66.1497 94.7453 65.4436C92.4635 64.722 90.2054 62.56 88.1231 59.0019L88.1224 59.0007C86.5072 56.2584 85.1553 52.9408 83.8079 49.5417C83.7038 49.2791 83.5998 49.0161 83.4956 48.7528C82.2577 45.6232 81.0071 42.4616 79.5534 39.718L79.5496 39.7108L79.5456 39.7037L79.5314 39.6789C79.0768 38.8844 78.8333 38.4588 78.5679 38.0736C78.3012 37.6864 78.0145 37.3427 77.4841 36.7072L77.4675 36.6873L77.4569 36.6746L77.4455 36.6626C77.225 36.4314 76.8844 36.2362 76.6189 36.1077C76.4783 36.0397 76.34 35.9814 76.2211 35.9388C76.162 35.9176 76.1026 35.8986 76.047 35.8841C76.0023 35.8725 75.9219 35.8533 75.8356 35.8533H75.8008L75.7664 35.8581C74.3795 36.052 73.2188 37.1902 72.22 38.5045C71.4875 39.4684 70.7808 40.6144 70.0983 41.7213C69.8389 42.142 69.5829 42.5571 69.3304 42.9543C66.635 47.1533 63.7826 49.6809 60.8307 50.8563C57.8902 52.0272 54.787 51.8819 51.5271 50.6103C48.3352 49.3348 45.2688 47.0113 42.199 44.2813C40.6663 42.9183 39.142 41.4626 37.6053 39.9944L37.5815 39.9717C36.056 38.5142 34.5182 37.0451 32.9599 35.656C30.3018 33.197 27.1907 30.7577 24.0151 29.782C22.4157 29.2907 20.7806 29.1643 19.1742 29.6095C17.5663 30.055 16.0316 31.0608 14.614 32.7588C10.2939 37.7944 7.47556 47.4185 7.63178 57.9495C7.63132 60.5108 7.15282 62.3787 6.47361 63.572C5.79243 64.7687 4.95928 65.2212 4.22356 65.1759C3.47186 65.1295 2.59252 64.5523 1.85963 63.1844C1.1324 61.8272 0.596331 59.7635 0.519617 56.9515C0.364838 50.4562 1.13901 44.2801 2.38094 38.4199L2.38167 38.4164C3.54346 32.7313 5.36131 27.6273 7.59532 23.548C9.83358 19.461 12.4681 16.4411 15.2423 14.8687L15.2424 14.8688L15.2507 14.8638C18.6814 12.8305 22.1441 12.8986 25.582 14.2058C29.0425 15.5217 32.4578 18.0882 35.7215 21.0216L35.7248 21.0245C37.1485 22.2817 38.5736 23.6541 40.017 25.0441L40.1646 25.1863C41.6553 26.6216 43.1652 28.0714 44.6967 29.4097C47.7505 32.0781 50.9454 34.3545 54.3426 35.2026L54.3426 35.2027L54.3502 35.2045C55.8081 35.5442 57.3371 35.6365 58.8415 35.2421C60.3505 34.8465 61.8003 33.9701 63.1082 32.4293C64.3835 31.012 65.5131 29.2327 66.6066 27.5102C66.6777 27.3982 66.7487 27.2863 66.8196 27.1749C67.9952 25.3258 69.1361 23.5762 70.4149 22.3143L70.4201 22.3089C71.6643 21.0439 72.8886 20.2832 74.0679 19.95C75.2395 19.619 76.3969 19.7009 77.5363 20.1713C79.8425 21.1233 82.1118 23.6863 84.122 27.7388C85.0647 29.7162 85.8818 31.7863 86.6963 33.8497C87.2277 35.1961 87.758 36.5397 88.3214 37.8527C88.4337 38.1353 88.5429 38.4117 88.6501 38.6828C89.2782 40.2715 89.8341 41.6775 90.5017 43.0812C90.6683 43.5962 90.8734 44.024 91.0718 44.3983C91.1532 44.552 91.2287 44.6886 91.2995 44.8165C91.4134 45.0225 91.5148 45.2059 91.6082 45.4018L92.1737 46.5878L92.3882 47.0376L92.4199 47.1041L92.4455 47.1576L92.4507 47.1686L92.4508 47.1688L92.4513 47.1698Z" fill="#FCE375" stroke="black"/>
<path d="M300.115 15.6448L300.115 15.6448L300.111 15.6425C299.077 15.0126 298.34 13.6447 297.938 11.8504C297.541 10.0768 297.496 7.99022 297.753 6.07587C298.012 4.14947 298.566 2.46701 299.31 1.46067C299.679 0.961365 300.066 0.666764 300.45 0.554399C300.817 0.44689 301.252 0.48536 301.777 0.79436C310.758 6.31549 319.291 14.4449 327.216 25.1994L327.222 25.2068L327.228 25.2139C328.297 26.5599 328.992 29.2092 329.05 31.9472C329.078 33.3019 328.949 34.6459 328.648 35.8203C328.346 36.9985 327.88 37.9709 327.26 38.6228C316.979 49.0764 306.391 58.5456 295.495 66.7061L295.488 66.7115L295.481 66.7171C295.088 67.0341 294.725 67.0896 294.38 66.9967C294.007 66.8961 293.592 66.6027 293.18 66.0958C292.358 65.0837 291.682 63.3816 291.456 61.4854L291.456 61.4854L291.454 61.4771C291.151 59.2481 291.305 57.1904 291.772 55.503C292.242 53.8103 293.016 52.527 293.921 51.7949C301.759 45.7257 309.502 39.072 317.152 31.8343C319.197 34.1621 321.201 36.6447 323.162 39.2699L324.063 40.4754V38.9706V38.9438V38.9169V38.8901V38.8632V38.8364V38.8095V38.7826V38.7557V38.7288V38.7019V38.675V38.6481V38.6211V38.5942V38.5672V38.5403V38.5133V38.4864V38.4594V38.4324V38.4054V38.3785V38.3515V38.3244V38.2974V38.2704V38.2434V38.2164V38.1893V38.1623V38.1352V38.1082V38.0811V38.054V38.027V37.9999V37.9728V37.9457V37.9186V37.8915V37.8643V37.8372V37.8101V37.783V37.7558V37.7287V37.7015V37.6744V37.6472V37.62V37.5928V37.5657V37.5385V37.5113V37.4841V37.4569V37.4296V37.4024V37.3752V37.348V37.3207V37.2935V37.2662V37.239V37.2117V37.1845V37.1572V37.1299V37.1026V37.0754V37.0481V37.0208V36.9935V36.9661V36.9388V36.9115V36.8842V36.8569V36.8295V36.8022V36.7748V36.7475V36.7201V36.6928V36.6654V36.638V36.6107V36.5833V36.5559V36.5285V36.5011V36.4737V36.4463V36.4189V36.3915V36.3641V36.3366V36.3092V36.2818V36.2543V36.2269V36.1995V36.172V36.1445V36.1171V36.0896V36.0622V36.0347V36.0072V35.9797V35.9522V35.9247V35.8973V35.8698V35.8423V35.8147V35.7872V35.7597V35.7322V35.7047V35.6771V35.6496V35.6221V35.5945V35.567V35.5395V35.5119V35.4843V35.4568V35.4292V35.4017V35.3741V35.3465V35.3189V35.2914V35.2638V35.2362V35.2086V35.181V35.1534V35.1258V35.0982V35.0706V35.043V35.0154V34.9878V34.9601V34.9325V34.9049V34.8773V34.8496V34.822V34.7944V34.7667V34.7391V34.7114V34.6838V34.6561V34.6285V34.6008V34.5731V34.5455V34.5178V34.4901V34.4625V34.4348V34.4071V34.3794V34.3517V34.3241V34.2964V34.2687V34.241V34.2133V34.1856V34.1579V34.1302V34.1025V34.0748V34.0471V34.0193V33.9916V33.9639V33.9362V33.9085V33.8807V33.853V33.8253V33.7976V33.7698V33.7421V33.7144V33.6866V33.6589V33.6312V33.6034V33.5757V33.5479V33.5202V33.4924V33.4647V33.4369V33.4092V33.3814V33.3537V33.3259V33.2981V33.2704V33.2426V33.2148V33.1871V33.1593V33.1315V33.1038V33.076V33.0482V33.0205V32.9927V32.9649V32.9371V32.9094V32.8816V32.8538V32.826V32.7982V32.7705V32.7427V32.7149V32.6871V32.6593V32.6315V32.6038V32.576V32.5482V32.5204V32.4926V32.4648V32.437V32.4092V32.3814V32.3536V32.3258V32.2981V32.2703V32.2425V32.2147V32.1869V32.1591V32.1313V32.1035V32.0757V32.0479V32.0201V31.9923V31.9645V31.9367V31.9089V31.8811V31.8533V31.8255V31.7977V31.7699V31.7422V31.7144V31.6866V31.6588V31.631V31.6032V31.5754V31.5476V31.5198V31.492V31.4642V31.4364V31.4086V31.3808V31.3531V31.3253V31.2975V31.2697V31.2419V31.2141V31.1863V31.1585V31.1308V31.103V31.0752V31.0474V31.0196V30.9919V30.9641V30.9363V30.9085V30.8808V30.853V30.8252V30.7974V30.7697V30.7419V30.7141V30.6864V30.6586V30.6308V30.6031V30.5753V30.5475V30.5198V30.492V30.4643V30.4365V30.4088V30.381V30.3533V30.3255V30.2978V30.27V30.2423V30.2146V30.1868V30.1591V30.1313V30.1036V30.0759V30.0481V30.0204V29.9927V29.965V29.9373V29.9095V29.8818V29.8541V29.8264V29.7987V29.771V29.7433V29.7156V29.6879V29.6602V29.6325V29.6048V29.5771V29.5494V29.5217V29.494V29.4663V29.4387V29.411V29.3833V29.3556V29.328V29.3003V29.2726V29.245V29.2173V29.1897V29.162V29.1344V29.1067V29.0791V29.0515V29.0238V28.9962V28.9686V28.9409V28.9133V28.8857V28.8581V28.8305V28.8028V28.7752V28.7476V28.72V28.6924V28.6648V28.6372V28.6097V28.5821V28.5545V28.5269V28.4993V28.4718V28.4442V28.4167V28.3891V28.3615V28.334V28.3064V28.2789V28.2514V28.2238V28.1963V28.1688V28.1412V28.1137V28.0862V28.0587V28.0312V28.0037V27.9762V27.9487V27.9212V27.8937V27.8662V27.8388V27.8113V27.7838V27.7564V27.7289V27.7014V27.674V27.6465V27.6191V27.5917V27.5642V27.5368V27.5094V27.482V27.4545V27.4271V27.3997V27.3723V27.3449V27.3175V27.2902V27.2628V27.2354V27.208V27.1807V27.1533V27.126V27.0986V27.0713V27.0439V27.0166V26.9893V26.9619V26.9346V26.9073V26.88V26.8527V26.8254V26.7981V26.7708V26.7435V26.7162V26.689V26.6617V26.6345V26.6072V26.58V26.5527V26.5255V26.4982V26.471V26.4438V26.4166V26.3894V26.3622V26.335V26.3078V26.2806V26.2534V26.2263V26.1991V26.1719V26.1448V26.1176V26.0905V26.0633V26.0362V26.0091V25.982V25.9549V25.9278V25.9007V25.8736V25.8465V25.8194V25.7923V25.7653V25.7382V25.7112V25.6841V25.6571V25.6301V25.603V25.576V25.549V25.522V25.495V25.468V25.441V25.414V25.3871V25.3601V25.3331V25.3062V25.2793V25.2523V25.2254V25.1985V25.1716V25.1446V25.1177V25.0909V25.064V25.0371V25.0102V24.9834V24.9565V24.9297V24.9028V23.6969L323.21 24.549C321.217 26.5388 319.218 28.4881 317.213 30.397C311.791 24.3433 306.074 19.3478 300.115 15.6448ZM323.063 26.1059V26.1176V26.1448V26.1719V26.1991V26.2263V26.2534V26.2806V26.3078V26.335V26.3622V26.3894V26.4166V26.4438V26.471V26.4982V26.5255V26.5527V26.58V26.6072V26.6345V26.6617V26.689V26.7162V26.7435V26.7708V26.7981V26.8254V26.8527V26.88V26.9073V26.9346V26.9619V26.9893V27.0166V27.0439V27.0713V27.0986V27.126V27.1533V27.1807V27.208V27.2354V27.2628V27.2902V27.3175V27.3449V27.3723V27.3997V27.4271V27.4545V27.482V27.5094V27.5368V27.5642V27.5917V27.6191V27.6465V27.674V27.7014V27.7289V27.7564V27.7838V27.8113V27.8388V27.8662V27.8937V27.9212V27.9487V27.9762V28.0037V28.0312V28.0587V28.0862V28.1137V28.1412V28.1688V28.1963V28.2238V28.2514V28.2789V28.3064V28.334V28.3615V28.3891V28.4167V28.4442V28.4718V28.4993V28.5269V28.5545V28.5821V28.6097V28.6372V28.6648V28.6924V28.72V28.7476V28.7752V28.8028V28.8305V28.8581V28.8857V28.9133V28.9409V28.9686V28.9962V29.0238V29.0515V29.0791V29.1067V29.1344V29.162V29.1897V29.2173V29.245V29.2726V29.3003V29.328V29.3556V29.3833V29.411V29.4387V29.4663V29.494V29.5217V29.5494V29.5771V29.6048V29.6325V29.6602V29.6879V29.7156V29.7433V29.771V29.7987V29.8264V29.8541V29.8818V29.9095V29.9373V29.965V29.9927V30.0204V30.0481V30.0759V30.1036V30.1313V30.1591V30.1868V30.2146V30.2423V30.27V30.2978V30.3255V30.3533V30.381V30.4088V30.4365V30.4643V30.492V30.5198V30.5475V30.5753V30.6031V30.6308V30.6586V30.6864V30.7141V30.7419V30.7697V30.7974V30.8252V30.853V30.8808V30.9085V30.9363V30.9641V30.9919V31.0196V31.0474V31.0752V31.103V31.1308V31.1585V31.1863V31.2141V31.2419V31.2697V31.2975V31.3253V31.3531V31.3808V31.4086V31.4364V31.4642V31.492V31.5198V31.5476V31.5754V31.6032V31.631V31.6588V31.6866V31.7144V31.7422V31.7699V31.7977V31.8255V31.8533V31.8811V31.9089V31.9367V31.9645V31.9923V32.0201V32.0479V32.0757V32.1035V32.1313V32.1591V32.1869V32.2147V32.2425V32.2703V32.2981V32.3258V32.3536V32.3814V32.4092V32.437V32.4648V32.4926V32.5204V32.5482V32.576V32.6038V32.6315V32.6593V32.6871V32.7149V32.7427V32.7705V32.7982V32.826V32.8538V32.8816V32.9094V32.9371V32.9649V32.9927V33.0205V33.0482V33.076V33.1038V33.1315V33.1593V33.1871V33.2148V33.2426V33.2704V33.2981V33.3259V33.3537V33.3814V33.4092V33.4369V33.4647V33.4924V33.5202V33.5479V33.5757V33.6034V33.6312V33.6589V33.6866V33.7144V33.7421V33.7698V33.7976V33.8253V33.853V33.8807V33.9085V33.9362V33.9639V33.9916V34.0193V34.0471V34.0748V34.1025V34.1302V34.1579V34.1856V34.2133V34.241V34.2687V34.2964V34.3241V34.3517V34.3794V34.4071V34.4348V34.4625V34.4901V34.5178V34.5455V34.5731V34.6008V34.6285V34.6561V34.6838V34.7114V34.7391V34.7667V34.7944V34.822V34.8496V34.8773V34.9049V34.9325V34.9601V34.9878V35.0154V35.043V35.0706V35.0982V35.1258V35.1534V35.181V35.2086V35.2362V35.2638V35.2914V35.3189V35.3465V35.3741V35.4017V35.4292V35.4568V35.4843V35.5119V35.5395V35.567V35.5945V35.6221V35.6496V35.6771V35.7047V35.7322V35.7597V35.7872V35.8147V35.8423V35.8698V35.8973V35.9247V35.9522V35.9797V36.0072V36.0347V36.0622V36.0896V36.1171V36.1445V36.172V36.1995V36.2269V36.2543V36.2818V36.3092V36.3366V36.3641V36.3915V36.4189V36.4463V36.4737V36.5011V36.5285V36.5559V36.5833V36.6107V36.638V36.6654V36.6928V36.7201V36.7475V36.7748V36.8022V36.8295V36.8569V36.8842V36.9115V36.9388V36.9661V36.9935V37.0208V37.0481V37.0754V37.1026V37.1299V37.1572V37.1845V37.2117V37.239V37.2662V37.2935V37.3207V37.348V37.3752V37.4024V37.4296V37.4569V37.4798C321.367 35.2622 319.638 33.148 317.877 31.1454C319.611 29.4956 321.339 27.8158 323.063 26.1059Z" fill="#FCE375" stroke="black"/>
</svg>
