<svg width="95" height="101" viewBox="0 0 95 101" fill="none" xmlns="http://www.w3.org/2000/svg">
<path d="M40.5527 5.54945C36.9336 9.32307 34.6716 12.7637 33.7669 16.0934L32.4097 21.0879L28.9037 17.8692C24.1536 13.4297 21.3262 12.2088 16.0107 12.2088C11.9392 12.2088 11.0344 12.6527 9.11177 15.7604C4.36171 23.5297 6.84983 32.6308 15.7845 39.956L21.6655 44.8396L17.3678 46.9484C4.13551 53.4967 -4.57293 69.9231 2.55216 74.8066C6.05816 77.2484 10.582 77.0264 19.856 73.9187C24.2667 72.3648 27.8858 71.2549 27.9989 71.3659C28.112 71.4769 27.6596 74.1407 27.0941 77.1374C24.4929 90.0121 29.0168 101 36.8205 101C42.136 101 46.9992 96.6714 49.2611 89.9011C50.279 86.7934 51.2968 84.3516 51.4099 84.3516C51.6361 84.3516 53.1064 86.2385 54.6897 88.6802C56.4993 91.233 59.666 93.8967 62.8327 95.4505C69.6185 98.6692 73.5769 97.3374 76.9698 90.567C81.2675 81.7989 79.3448 70.811 72.3328 63.7077L68.9399 60.267L74.0293 59.7121C76.8567 59.3791 81.6068 57.9363 84.5473 56.4934C98.1189 49.8341 98.5713 35.2945 85.339 32.0758C80.702 30.8549 80.4758 30.633 81.9461 28.9681C84.8866 25.8604 87.2616 18.9791 86.4699 16.0934C85.452 12.3198 80.8151 8.87912 76.5174 8.87912C72.7852 8.87912 64.0768 12.4308 61.0232 15.0945C59.3267 16.6484 59.1005 16.3154 58.4219 11.9868C57.291 4.43956 54.0112 0 49.6004 0C46.773 0 44.8503 1.10989 40.5527 5.54945ZM52.4278 9.98901C53.3326 13.4297 52.3147 19.3121 48.1301 35.0725C47.9039 35.7385 46.2075 36.5154 44.2848 36.8484C40.3265 37.4033 39.6479 35.9604 39.6479 27.0813C39.6479 16.4264 44.9634 4.88351 49.6004 5.77143C50.6183 5.99341 51.8623 7.88022 52.4278 9.98901ZM79.4579 15.9824C82.2853 20.089 75.3864 32.4088 68.1483 36.1824C63.8506 38.5132 60.4577 42.6198 59.8922 46.5044C59.1005 51.4989 62.4934 50.278 69.2792 43.1747C75.4995 36.6264 76.4043 36.0714 80.9282 36.0714C89.6366 36.0714 92.8033 41.3989 88.2795 48.5022C83.3032 56.6044 69.3923 61.2659 63.0589 57.1593C59.3267 54.8286 55.5945 55.7165 57.8565 58.3802C58.6481 59.3791 61.4755 61.5989 64.1899 63.3747C66.9042 65.2615 69.7316 68.1473 70.6364 69.8121C73.4638 75.0286 74.0293 83.3527 72.1066 88.0143C70.5233 91.5659 69.7316 92.1209 66.678 92.1209C59.7791 92.1209 52.0885 80.356 52.0885 69.7011C52.0885 67.2593 51.6361 64.3736 50.9576 63.2637C50.1659 61.8209 50.5052 59.8231 52.2016 55.9385C54.1243 51.9429 54.4636 49.3901 53.8981 45.1725C53.4457 40.622 53.785 38.6242 56.0469 34.0736C60.797 24.9725 67.9221 15.7604 71.2019 14.6506C74.4817 13.5407 78.2139 14.2066 79.4579 15.9824ZM22.4572 17.2033C23.8143 18.2022 26.1894 21.1989 27.8858 23.8626C29.4692 26.6374 31.1656 28.8571 31.7311 28.8571C32.1835 28.8571 33.2014 31.1879 33.8799 34.0736C35.3502 39.5121 35.3502 39.4011 30.374 42.2868C27.5465 43.8407 25.2846 42.3978 18.3857 34.9615C11.713 27.8582 10.0165 22.6418 12.9571 18.3132C15.1059 15.0945 18.725 14.7615 22.4572 17.2033ZM45.8682 48.8352C47.1123 55.8275 44.7372 57.3813 39.1955 53.1637C37.2729 51.6099 36.255 49.8341 36.255 47.6143C36.255 44.6176 36.5943 44.3956 40.6658 44.3956C44.9634 44.3956 45.0765 44.5066 45.8682 48.8352ZM32.6359 53.4967L35.124 58.0473L30.8263 62.1538C28.3382 64.3736 24.4929 67.1483 22.0048 68.2582C16.5762 70.7 7.41532 71.8099 6.39745 70.0341C5.15338 68.0363 7.75461 61.7099 11.1475 58.4912C14.7666 55.1615 25.8501 48.8352 28.3382 48.8352C29.243 48.8352 31.1656 50.944 32.6359 53.4967ZM45.0765 61.9319C46.9992 63.1527 47.2254 79.9121 45.4158 86.2385C43.7194 92.2319 39.5348 97.2264 36.9336 96.2275C32.6359 94.5626 31.618 83.5747 34.6716 73.1418C37.8383 62.4868 40.7788 59.3791 45.0765 61.9319Z" fill="#E25D5D"/>
<path d="M9.96381 16.2839C10.9209 14.7372 11.5046 14.0711 12.2112 13.7093C12.9447 13.3338 13.956 13.2088 16.0107 13.2088C18.5881 13.2088 20.4735 13.5046 22.2682 14.2903C24.0797 15.0832 25.8764 16.4086 28.2209 18.5998L28.2274 18.6059L31.7334 21.8246L32.9438 22.9358L33.3747 21.3501L34.7319 16.3556C35.5737 13.2574 37.7074 9.96125 41.2728 6.24326C43.4138 4.03175 44.8933 2.72562 46.1468 1.96472C47.3499 1.23441 48.3554 1 49.6004 1C51.422 1 53.0689 1.9006 54.436 3.75631C55.8193 5.634 56.8818 8.45712 57.433 12.135L57.434 12.1417C57.6032 13.2208 57.7495 14.0874 57.9021 14.7435C58.0425 15.3474 58.2257 15.9646 58.5682 16.3815C58.7686 16.6253 59.0602 16.8472 59.4539 16.9191C59.8279 16.9874 60.1589 16.8948 60.4012 16.7876C60.8413 16.5928 61.2849 16.2106 61.69 15.8398C63.0903 14.6226 65.8975 13.1229 68.89 11.9152C71.9032 10.6993 74.8588 9.87912 76.5174 9.87912C78.412 9.87912 80.4438 10.6445 82.1338 11.8787C83.829 13.1167 85.0705 14.745 85.5044 16.3538L85.5055 16.358C85.6508 16.8874 85.6698 17.7012 85.5206 18.7439C85.3743 19.7669 85.0779 20.931 84.6635 22.1178C83.8272 24.5126 82.5579 26.8665 81.2197 28.2808L81.2079 28.2933L81.1965 28.3062C80.8503 28.6982 80.4675 29.1474 80.2795 29.6028C80.174 29.8585 80.0971 30.1886 80.17 30.5558C80.2442 30.93 80.4486 31.2158 80.6752 31.4244C81.0754 31.7926 81.6834 32.0408 82.3273 32.2572C83.0139 32.4879 83.9287 32.7386 85.0843 33.0429L85.0934 33.0453L85.1026 33.0475C91.339 34.5644 94.133 38.6434 93.9951 42.9624C93.8545 47.3664 90.6564 52.3819 84.1068 55.5957C82.3382 56.4635 79.8807 57.3341 77.6244 57.946C82.2615 56.143 86.6786 53.0147 89.1273 49.0325C91.4789 45.3368 92.0174 41.7998 90.4263 39.1135C88.8479 36.4485 85.4331 35.0714 80.9282 35.0714C78.6223 35.0714 77.0323 35.2076 75.2191 36.3138C73.5122 37.355 71.6327 39.2452 68.5549 42.4853M9.96381 16.2839L69.2792 43.1747M9.96381 16.2839C7.73222 19.935 7.20972 23.8674 8.28053 27.7595C9.35735 31.6733 12.0669 35.615 16.4185 39.1827L16.4233 39.1867L22.3043 44.0702L23.4926 45.0569L22.106 45.7373L17.8114 47.8446M9.96381 16.2839L17.8114 47.8446M68.5549 42.4853C68.5546 42.4855 68.5544 42.4858 68.5542 42.486L69.2792 43.1747M68.5549 42.4853C68.5553 42.4849 68.5557 42.4844 68.5561 42.484L69.2792 43.1747M68.5549 42.4853C66.875 44.2437 65.4214 45.6207 64.2035 46.6214C62.9668 47.6376 62.0399 48.2094 61.4087 48.4342C61.1146 48.5389 60.9588 48.5409 60.9022 48.5341M69.2792 43.1747C62.4934 50.278 59.1005 51.4989 59.8922 46.5044C60.4577 42.6198 63.8506 38.5132 68.1483 36.1824M60.9022 48.5341C60.9039 48.537 60.9054 48.5395 60.9069 48.5417C60.9108 48.5477 60.8872 48.5319 60.8927 48.5328C60.8955 48.5333 60.8986 48.5337 60.9022 48.5341ZM60.9022 48.5341C60.8725 48.4842 60.81 48.3373 60.7875 48.0166C60.7643 47.6868 60.788 47.2404 60.8799 46.6609L60.8818 46.6485L60.8818 46.6484C61.3875 43.1739 64.5031 39.2993 68.6182 37.0652M68.6182 37.0652C68.6156 37.0665 68.6131 37.0678 68.6105 37.0691L68.1483 36.1824M68.6182 37.0652C68.6205 37.0639 68.6227 37.0627 68.625 37.0615L68.1483 36.1824M68.6182 37.0652C72.4669 35.0556 76.12 30.8574 78.4502 26.6958C79.6222 24.6028 80.4929 22.4609 80.8816 20.5387C81.262 18.6575 81.2207 16.7793 80.2816 15.4153L80.277 15.4086C79.4347 14.2065 77.88 13.5183 76.2577 13.2479C74.5987 12.9715 72.679 13.095 70.8813 13.7033C69.8358 14.0571 68.6399 14.9801 67.4236 16.1544C66.1755 17.3595 64.7972 18.9383 63.3865 20.7513C60.5642 24.3786 57.563 29.0076 55.1604 33.6109L55.1558 33.6197L55.1514 33.6285C54.0073 35.9303 53.3088 37.6644 52.9722 39.4364C52.6346 41.2136 52.6734 42.9626 52.903 45.2715L52.9047 45.2885L52.9069 45.3054C53.1827 47.3624 53.2292 48.9515 52.9944 50.4876C52.7597 52.0227 52.2355 53.5618 51.3005 55.5049L51.2925 55.5214L51.2852 55.5382C50.4286 57.4996 49.8795 59.0605 49.6607 60.3493C49.4376 61.6628 49.5452 62.7685 50.0809 63.7448L50.0921 63.7653L50.1044 63.7854C50.3367 64.1653 50.5962 64.9995 50.7916 66.1504C50.9801 67.26 51.0885 68.5359 51.0885 69.7011C51.0885 75.2489 53.0829 81.0407 55.9584 85.4526C57.3987 87.6625 59.0823 89.5608 60.8876 90.9159C62.6878 92.2672 64.6684 93.1209 66.678 93.1209C68.2209 93.1209 69.4818 92.9952 70.5434 92.1997C71.5557 91.441 72.2376 90.1765 73.02 88.4215L73.0257 88.4086L73.0311 88.3956C74.0729 85.8698 74.4113 82.4516 74.1498 79.0448C73.8877 75.6287 73.013 72.0983 71.5155 69.3356L71.515 69.3346C70.9938 68.3754 69.9802 67.1572 68.8007 65.9714C67.6057 64.7701 66.1745 63.5364 64.7606 62.5536L64.7491 62.5456L64.7374 62.5379C63.4043 61.6658 62.0426 60.6839 60.9209 59.8005C59.7703 58.8944 58.9539 58.155 58.6402 57.7591L58.6297 57.7458L58.6187 57.7329C58.2457 57.2937 58.1833 57.05 58.172 56.9713M68.1483 36.1824C75.3864 32.4088 82.2853 20.089 79.4579 15.9824M79.4579 15.9824L73.9163 58.7185C73.915 58.7186 73.9137 58.7188 73.9123 58.7189L68.8315 59.2729L66.7762 59.497L66.8005 59.5217M79.4579 15.9824C78.2139 14.2066 74.4817 13.5407 71.2019 14.6506C67.9221 15.7604 60.797 24.9725 56.0469 34.0736L79.4579 15.9824ZM58.172 56.9713C58.1651 56.9762 58.1597 56.9806 58.1556 56.9843M58.172 56.9713C58.1693 56.9521 58.1696 56.9427 58.1692 56.9427C58.169 56.9427 58.1688 56.9441 58.1681 56.9471C58.1645 56.9639 58.1598 56.9761 58.1556 56.9843M58.172 56.9713C58.2079 56.9459 58.2853 56.9065 58.4396 56.8701C59.2011 56.6904 60.7867 56.9213 62.5224 58.0033M58.1556 56.9843C58.1503 56.9946 58.1458 56.9988 58.1447 56.9984C58.1437 56.998 58.1463 56.9928 58.1556 56.9843ZM62.5224 58.0033C62.5199 58.0017 62.5174 58 62.5149 57.9984L63.0589 57.1593L62.5292 58.0075C62.5269 58.0061 62.5247 58.0047 62.5224 58.0033ZM62.5224 58.0033C63.7545 58.8003 65.2128 59.2913 66.8005 59.5217M66.8005 59.5217L68.2279 60.9692L71.6208 64.4098L71.6212 64.4102C78.3451 71.2217 80.1747 81.7519 76.0737 90.1231C74.4202 93.4213 72.7396 95.1594 70.8487 95.8089C68.9579 96.4584 66.5728 96.1168 63.2673 94.5499C60.2468 93.0664 57.2236 90.5177 55.5173 88.1184C54.7182 86.8871 53.9445 85.7901 53.3354 84.9931C53.0311 84.5949 52.7578 84.2583 52.537 84.014C52.429 83.8946 52.3158 83.7772 52.2063 83.6823C52.1531 83.6361 52.0781 83.5752 51.9882 83.5202L51.9866 83.5192C51.9314 83.4855 51.7126 83.3516 51.4099 83.3516C51.0196 83.3516 50.7734 83.5742 50.7332 83.6106L50.7302 83.6132C50.6534 83.6819 50.6015 83.7488 50.577 83.7816C50.5236 83.8531 50.4812 83.9259 50.4536 83.9754C50.3938 84.0826 50.3279 84.2182 50.2606 84.3649C50.1232 84.6647 49.9463 85.0849 49.7451 85.5926C49.3418 86.6104 48.8264 88.0158 48.3117 89.587C46.1278 96.121 41.547 100 36.8205 100C33.4763 100 30.6755 97.662 28.9811 93.5182C27.29 89.3824 26.8038 83.6239 28.0743 77.3354L28.0769 77.3228L28.0768 77.3228C28.3602 75.8211 28.6166 74.3958 28.7883 73.3284C28.8738 72.7968 28.9404 72.3414 28.9784 72.0056C28.9971 71.8411 29.0114 71.6837 29.0153 71.5525C29.0171 71.4905 29.0178 71.4034 29.0082 71.3119C29.0035 71.2672 28.9935 71.1916 28.968 71.104C28.95 71.0423 28.8874 70.8368 28.6993 70.6522C28.4421 70.3997 28.1366 70.3699 28.0891 70.3652C28.0874 70.3651 28.0861 70.3649 28.0851 70.3648C27.9899 70.3546 27.9094 70.3587 27.8661 70.3618C27.7733 70.3684 27.681 70.3841 27.6087 70.398C27.4557 70.4274 27.2612 70.4748 27.0423 70.533C26.5983 70.651 25.9822 70.8327 25.2418 71.0632C23.7592 71.5249 21.7427 72.1939 19.531 72.9729M66.8005 59.5217C67.4716 59.6191 68.1657 59.67 68.8757 59.6777C69.0966 59.6801 69.319 59.6784 69.5428 59.6726L19.531 72.9729M17.8114 47.8446C17.8108 47.8449 17.8102 47.8452 17.8097 47.8455C11.3927 51.0216 6.05698 56.6097 3.2091 61.9709C1.78413 64.6534 1.01963 67.2086 1.00037 69.3235C0.981362 71.4115 1.67901 72.9958 3.11751 73.9817L3.11753 73.9817L3.12367 73.986C6.17943 76.1142 10.2378 76.0864 19.531 72.9729M17.8114 47.8446L19.531 72.9729M76.9698 90.567C81.2675 81.7989 79.3448 70.811 72.3328 63.7077L76.9698 90.567ZM76.9698 90.567C73.5769 97.3374 69.6185 98.6692 62.8327 95.4505C59.666 93.8967 56.4993 91.233 54.6897 88.6802C53.7021 87.1571 52.7584 85.8499 52.1332 85.0819C52.1638 85.0182 52.186 84.9752 52.2001 84.9499C52.2022 84.9461 52.2038 84.9434 52.2048 84.9417C52.2016 84.9469 52.193 84.9602 52.1797 84.978C52.1721 84.9882 52.1494 85.0184 52.1126 85.0566L76.9698 90.567ZM53.3937 9.73L53.3949 9.7347C53.904 11.6704 53.843 14.1772 53.1731 18.08C52.5003 21.9993 51.1891 27.4485 49.0966 35.3291L49.0879 35.362L49.077 35.3941C48.9269 35.8361 48.5951 36.1582 48.3179 36.3737C48.0179 36.6069 47.6522 36.8139 47.262 36.9936C46.479 37.3543 45.489 37.6547 44.4555 37.8337L44.4396 37.8364L44.4237 37.8387C43.4031 37.9817 42.4322 38.0249 41.5891 37.7585C40.6706 37.4683 40.0139 36.8494 39.5784 35.9311C39.1688 35.0674 38.9482 33.9289 38.8199 32.5222C38.6901 31.0993 38.6479 29.3065 38.6479 27.0813C38.6479 21.6065 40.0093 15.9134 41.9784 11.6764C42.9613 9.56145 44.1221 7.75166 45.3903 6.51282C46.6427 5.2894 48.1613 4.47769 49.7885 4.78928L49.801 4.79167L49.8135 4.7944C50.3014 4.90079 50.7223 5.18025 51.06 5.48328C51.4071 5.79478 51.7285 6.18715 52.0157 6.61779C52.59 7.47889 53.0851 8.57928 53.3937 9.73ZM23.0047 16.3665L23.0277 16.3816L23.05 16.3979C23.8399 16.9793 24.8409 18.0661 25.822 19.2801C26.8212 20.5165 27.861 21.9621 28.7293 23.3255L28.7423 23.3459L28.7544 23.367C29.5295 24.7253 30.3247 25.934 30.9832 26.7912C31.3149 27.223 31.5942 27.5424 31.805 27.7438C31.873 27.8086 31.9246 27.8523 31.9604 27.8802C32.294 27.9481 32.5207 28.1483 32.6171 28.2406C32.7697 28.3868 32.8981 28.5619 33.0032 28.7252C33.2177 29.0585 33.4345 29.4998 33.6428 29.9963C34.0621 30.9956 34.5005 32.3476 34.8496 33.8284L34.8805 33.9427C35.2256 35.2189 35.5046 36.2508 35.6394 37.0862C35.7805 37.9604 35.7925 38.7712 35.4622 39.5346C35.1345 40.2919 34.5357 40.8489 33.8067 41.3664C33.1372 41.8415 32.245 42.3584 31.1487 42.9936C31.059 43.0456 30.968 43.0983 30.8756 43.1519L30.8657 43.1576L30.8556 43.1632C30.0381 43.6124 29.1837 43.8861 28.2323 43.8424C27.2913 43.7992 26.3629 43.4504 25.3826 42.8472C23.4656 41.6676 21.0856 39.342 17.6546 35.6439C14.2823 32.0535 12.0735 28.8461 11.1156 25.9067C10.1377 22.9056 10.4714 20.1946 12.1276 17.7546C13.3482 15.9281 15.0411 14.8575 17.004 14.6416C18.9386 14.4288 21.0064 15.0591 23.0047 16.3665ZM32.0207 27.9216C32.0207 27.9213 32.0161 27.9183 32.0072 27.9138C32.0163 27.9196 32.0207 27.9219 32.0207 27.9216ZM46.8519 48.6553L46.8527 48.66C47.1718 50.4534 47.2742 51.974 47.1218 53.1798C46.9719 54.3667 46.5471 55.4398 45.6216 56.0415C44.6847 56.6507 43.5418 56.5797 42.4255 56.1955C41.2983 55.8076 40.013 55.0425 38.5899 53.9595L38.5783 53.9507L38.5669 53.9415C36.4697 52.2465 35.255 50.2059 35.255 47.6143C35.255 46.872 35.2733 46.1961 35.3941 45.6362C35.523 45.0387 35.7893 44.4753 36.3469 44.0713C36.8574 43.7016 37.4931 43.5566 38.1477 43.4833C38.8153 43.4086 39.6532 43.3956 40.6658 43.3956C41.723 43.3956 42.6027 43.401 43.3038 43.4882C44.0151 43.5767 44.6841 43.7634 45.2321 44.2325C45.7761 44.6983 46.0709 45.3318 46.2821 46.0233C46.4915 46.7091 46.657 47.59 46.8519 48.6553ZM33.5024 52.9976L33.508 53.0072L33.5133 53.017L36.0014 57.5675L36.3694 58.2404L35.8149 58.7702L31.5172 62.8768L31.5048 62.8887L31.4921 62.9C28.9697 65.1504 25.0369 68.0001 22.4141 69.1707C19.585 70.443 15.8339 71.3516 12.6628 71.721C11.0767 71.9058 9.58854 71.9615 8.40365 71.8443C7.81364 71.7859 7.25639 71.6808 6.78563 71.5038C6.33992 71.3361 5.8366 71.0532 5.53976 70.5484C5.04941 69.7491 5.01633 68.6945 5.14627 67.7095C5.28276 66.6748 5.62746 65.5101 6.10882 64.34C7.06844 62.0074 8.63844 59.4931 10.4593 57.7657L10.4648 57.7605L10.4704 57.7553C12.3687 56.0088 16.1283 53.5488 19.6749 51.544C21.4596 50.5352 23.2207 49.6244 24.7039 48.9625C25.4446 48.6319 26.1299 48.3571 26.7225 48.1631C27.29 47.9773 27.8609 47.8352 28.3382 47.8352C28.8956 47.8352 29.4046 48.1311 29.7684 48.3926C30.1733 48.6837 30.5957 49.0796 31.0114 49.5321C31.846 50.4406 32.7364 51.6676 33.5024 52.9976ZM45.5872 61.0721L45.6 61.0797L45.6126 61.0877C45.9339 61.2917 46.1469 61.5924 46.2902 61.8491C46.4412 62.1196 46.5653 62.4337 46.6704 62.7645C46.8809 63.427 47.0498 64.2677 47.1851 65.2137C47.4566 67.1128 47.61 69.566 47.6456 72.1568C47.7166 77.3071 47.3245 83.2005 46.3776 86.5121C45.4946 89.6312 43.9619 92.5084 42.2777 94.5007C41.4376 95.4944 40.5236 96.311 39.5909 96.8119C38.6615 97.3111 37.5964 97.5532 36.5751 97.161L36.5723 97.16C35.1571 96.6117 34.1354 95.3488 33.4281 93.8007C32.7149 92.2397 32.262 90.2662 32.0505 88.0685C31.6269 83.6682 32.1536 78.1848 33.7119 72.8609L33.7131 72.8569C35.2952 67.5336 36.8735 63.8814 38.7185 61.9021C39.6688 60.8825 40.7466 60.2446 41.9772 60.1137C43.1934 59.9844 44.401 60.3675 45.5872 61.0721Z" stroke="#FF169E" stroke-opacity="0.75" stroke-width="2"/>
</svg>
